G04 #@! TF.FileFunction,Soldermask,Top*
%FSLAX46Y46*%
G04 Gerber Fmt 4.6, Leading zero omitted, Abs format (unit mm)*
G04 Created by KiCad (PCBNEW 4.0.1-stable) date Sun 03 Jan 2016 01:50:34 PM EET*
%MOMM*%
G01*
G04 APERTURE LIST*
%ADD10C,0.100000*%
%ADD11R,1.792000X1.792000*%
%ADD12O,1.792000X1.792000*%
%ADD13R,1.792000X1.487200*%
%ADD14O,1.792000X1.487200*%
%ADD15R,1.487200X1.792000*%
%ADD16O,1.487200X1.792000*%
%ADD17O,0.860000X2.160000*%
%ADD18R,2.160000X0.860000*%
%ADD19O,2.160000X0.860000*%
%ADD20R,1.055400X1.309400*%
%ADD21R,1.309400X1.055400*%
G04 APERTURE END LIST*
D10*
D11*
X130810000Y-88900000D03*
D12*
X128270000Y-88900000D03*
D13*
X135890000Y-88900000D03*
D14*
X135890000Y-91440000D03*
X135890000Y-93980000D03*
X135890000Y-96520000D03*
X135890000Y-99060000D03*
X135890000Y-101600000D03*
X135890000Y-104140000D03*
D13*
X161290000Y-104140000D03*
D14*
X161290000Y-101600000D03*
X161290000Y-99060000D03*
X161290000Y-96520000D03*
X161290000Y-93980000D03*
X161290000Y-91440000D03*
X161290000Y-88900000D03*
D15*
X163830000Y-74930000D03*
D16*
X166370000Y-74930000D03*
X168910000Y-74930000D03*
X158750000Y-76840000D03*
X156210000Y-76840000D03*
X153670000Y-76840000D03*
X151130000Y-76840000D03*
X148590000Y-76840000D03*
X146050000Y-76840000D03*
X143510000Y-76840000D03*
D15*
X140970000Y-76840000D03*
X140970000Y-116840000D03*
D16*
X143510000Y-116840000D03*
X146050000Y-116840000D03*
X148590000Y-116840000D03*
X151130000Y-116840000D03*
X153670000Y-116840000D03*
X156210000Y-116840000D03*
X158750000Y-116840000D03*
D17*
X143960000Y-105920000D03*
X145960000Y-105920000D03*
X147960000Y-105920000D03*
X149960000Y-105920000D03*
X151960000Y-105920000D03*
X153960000Y-105920000D03*
D18*
X140970000Y-90170000D03*
D19*
X140970000Y-92170000D03*
X140970000Y-94170000D03*
X140970000Y-96170000D03*
X140970000Y-98170000D03*
X140970000Y-100170000D03*
X140970000Y-102170000D03*
X140970000Y-104170000D03*
X156970000Y-104170000D03*
X156970000Y-102170000D03*
X156970000Y-100170000D03*
X156970000Y-98170000D03*
X156970000Y-96170000D03*
X156970000Y-94170000D03*
X156970000Y-92170000D03*
X156970000Y-90170000D03*
D15*
X140970000Y-72390000D03*
D16*
X143510000Y-72390000D03*
X146050000Y-72390000D03*
X148590000Y-72390000D03*
X151130000Y-72390000D03*
X153670000Y-72390000D03*
X156210000Y-72390000D03*
D15*
X139954000Y-110490000D03*
D16*
X142494000Y-110490000D03*
X145034000Y-110490000D03*
X147574000Y-110490000D03*
X150114000Y-110490000D03*
X152654000Y-110490000D03*
X155194000Y-110490000D03*
D20*
X171157900Y-109032040D03*
X171157900Y-117027960D03*
X166662100Y-117027960D03*
X166662100Y-109032040D03*
D21*
X125542040Y-113322100D03*
X133537960Y-113322100D03*
X133537960Y-117817900D03*
X125542040Y-117817900D03*
M02*
