G04 #@! TF.FileFunction,Legend,Bot*
%FSLAX46Y46*%
G04 Gerber Fmt 4.6, Leading zero omitted, Abs format (unit mm)*
G04 Created by KiCad (PCBNEW 4.0.1-stable) date Sun 03 Jan 2016 01:50:34 PM EET*
%MOMM*%
G01*
G04 APERTURE LIST*
%ADD10C,0.100000*%
%ADD11C,0.200660*%
%ADD12C,0.150000*%
%ADD13C,0.304800*%
%ADD14C,0.160000*%
G04 APERTURE END LIST*
D10*
D11*
X124010420Y-69850000D02*
X124010420Y-83149440D01*
X124010420Y-83149440D02*
X137609580Y-83149440D01*
X137609580Y-83149440D02*
X137609580Y-69850000D01*
X137609580Y-69850000D02*
X124010420Y-69850000D01*
D12*
X151660000Y-97560000D02*
X147560000Y-97560000D01*
X151660000Y-100560000D02*
X147560000Y-100560000D01*
X154174000Y-89121000D02*
X153674000Y-89121000D01*
X153674000Y-88171000D02*
X154174000Y-88171000D01*
X150335000Y-102620000D02*
X150335000Y-103120000D01*
X149385000Y-103120000D02*
X149385000Y-102620000D01*
X139420000Y-78390000D02*
X139420000Y-75290000D01*
X140970000Y-78390000D02*
X139420000Y-78390000D01*
X142240000Y-75570000D02*
X142240000Y-78110000D01*
X139420000Y-75290000D02*
X140970000Y-75290000D01*
X160020000Y-78110000D02*
X142240000Y-78110000D01*
X160020000Y-75570000D02*
X160020000Y-78110000D01*
X142240000Y-75570000D02*
X160020000Y-75570000D01*
X142240000Y-115570000D02*
X160020000Y-115570000D01*
X160020000Y-115570000D02*
X160020000Y-118110000D01*
X160020000Y-118110000D02*
X142240000Y-118110000D01*
X139420000Y-115290000D02*
X140970000Y-115290000D01*
X142240000Y-115570000D02*
X142240000Y-118110000D01*
X140970000Y-118390000D02*
X139420000Y-118390000D01*
X139420000Y-118390000D02*
X139420000Y-115290000D01*
X152595000Y-92980000D02*
X152595000Y-94980000D01*
X154745000Y-94980000D02*
X154745000Y-92980000D01*
X129270000Y-105859000D02*
X127270000Y-105859000D01*
X127270000Y-108009000D02*
X129270000Y-108009000D01*
X127270000Y-105469000D02*
X129270000Y-105469000D01*
X129270000Y-103319000D02*
X127270000Y-103319000D01*
X150860000Y-94175000D02*
X148860000Y-94175000D01*
X148860000Y-96325000D02*
X150860000Y-96325000D01*
X154670000Y-101795000D02*
X152670000Y-101795000D01*
X152670000Y-103945000D02*
X154670000Y-103945000D01*
X131005000Y-99330000D02*
X131005000Y-101330000D01*
X133155000Y-101330000D02*
X133155000Y-99330000D01*
X150860000Y-91635000D02*
X148860000Y-91635000D01*
X148860000Y-93785000D02*
X150860000Y-93785000D01*
X161485000Y-112284000D02*
X161485000Y-114284000D01*
X163635000Y-114284000D02*
X163635000Y-112284000D01*
X147125000Y-94980000D02*
X147125000Y-92980000D01*
X144975000Y-92980000D02*
X144975000Y-94980000D01*
X127270000Y-95055000D02*
X129270000Y-95055000D01*
X129270000Y-92905000D02*
X127270000Y-92905000D01*
X127270000Y-97595000D02*
X129270000Y-97595000D01*
X129270000Y-95445000D02*
X127270000Y-95445000D01*
X127270000Y-100135000D02*
X129270000Y-100135000D01*
X129270000Y-97985000D02*
X127270000Y-97985000D01*
X127270000Y-102675000D02*
X129270000Y-102675000D01*
X129270000Y-100525000D02*
X127270000Y-100525000D01*
X166624000Y-78994000D02*
X169672000Y-78994000D01*
X169672000Y-78994000D02*
X169672000Y-86106000D01*
X169672000Y-86106000D02*
X166624000Y-86106000D01*
X163576000Y-78994000D02*
X162814000Y-78994000D01*
X162814000Y-78994000D02*
X160528000Y-80518000D01*
X160528000Y-80518000D02*
X160528000Y-84582000D01*
X160528000Y-84582000D02*
X162814000Y-86106000D01*
X162814000Y-86106000D02*
X163576000Y-86106000D01*
D13*
X131318000Y-83747429D02*
X131318000Y-84836000D01*
X131390572Y-85053714D01*
X131535715Y-85198857D01*
X131753429Y-85271429D01*
X131898572Y-85271429D01*
X130664857Y-83892571D02*
X130592286Y-83820000D01*
X130447143Y-83747429D01*
X130084286Y-83747429D01*
X129939143Y-83820000D01*
X129866572Y-83892571D01*
X129794000Y-84037714D01*
X129794000Y-84182857D01*
X129866572Y-84400571D01*
X130737429Y-85271429D01*
X129794000Y-85271429D01*
D14*
X146216666Y-99417143D02*
X146264285Y-99464762D01*
X146407142Y-99512381D01*
X146502380Y-99512381D01*
X146645238Y-99464762D01*
X146740476Y-99369524D01*
X146788095Y-99274286D01*
X146835714Y-99083810D01*
X146835714Y-98940952D01*
X146788095Y-98750476D01*
X146740476Y-98655238D01*
X146645238Y-98560000D01*
X146502380Y-98512381D01*
X146407142Y-98512381D01*
X146264285Y-98560000D01*
X146216666Y-98607619D01*
X145264285Y-99512381D02*
X145835714Y-99512381D01*
X145550000Y-99512381D02*
X145550000Y-98512381D01*
X145645238Y-98655238D01*
X145740476Y-98750476D01*
X145835714Y-98798095D01*
D12*
X151804666Y-89003143D02*
X151852285Y-89050762D01*
X151995142Y-89098381D01*
X152090380Y-89098381D01*
X152233238Y-89050762D01*
X152328476Y-88955524D01*
X152376095Y-88860286D01*
X152423714Y-88669810D01*
X152423714Y-88526952D01*
X152376095Y-88336476D01*
X152328476Y-88241238D01*
X152233238Y-88146000D01*
X152090380Y-88098381D01*
X151995142Y-88098381D01*
X151852285Y-88146000D01*
X151804666Y-88193619D01*
X151423714Y-88193619D02*
X151376095Y-88146000D01*
X151280857Y-88098381D01*
X151042761Y-88098381D01*
X150947523Y-88146000D01*
X150899904Y-88193619D01*
X150852285Y-88288857D01*
X150852285Y-88384095D01*
X150899904Y-88526952D01*
X151471333Y-89098381D01*
X150852285Y-89098381D01*
D14*
X148502666Y-102211143D02*
X148550285Y-102258762D01*
X148693142Y-102306381D01*
X148788380Y-102306381D01*
X148931238Y-102258762D01*
X149026476Y-102163524D01*
X149074095Y-102068286D01*
X149121714Y-101877810D01*
X149121714Y-101734952D01*
X149074095Y-101544476D01*
X149026476Y-101449238D01*
X148931238Y-101354000D01*
X148788380Y-101306381D01*
X148693142Y-101306381D01*
X148550285Y-101354000D01*
X148502666Y-101401619D01*
X148169333Y-101306381D02*
X147550285Y-101306381D01*
X147883619Y-101687333D01*
X147740761Y-101687333D01*
X147645523Y-101734952D01*
X147597904Y-101782571D01*
X147550285Y-101877810D01*
X147550285Y-102115905D01*
X147597904Y-102211143D01*
X147645523Y-102258762D01*
X147740761Y-102306381D01*
X148026476Y-102306381D01*
X148121714Y-102258762D01*
X148169333Y-102211143D01*
D12*
X138628381Y-116101905D02*
X137628381Y-116101905D01*
X137628381Y-116482858D01*
X137676000Y-116578096D01*
X137723619Y-116625715D01*
X137818857Y-116673334D01*
X137961714Y-116673334D01*
X138056952Y-116625715D01*
X138104571Y-116578096D01*
X138152190Y-116482858D01*
X138152190Y-116101905D01*
X137628381Y-117578096D02*
X137628381Y-117101905D01*
X138104571Y-117054286D01*
X138056952Y-117101905D01*
X138009333Y-117197143D01*
X138009333Y-117435239D01*
X138056952Y-117530477D01*
X138104571Y-117578096D01*
X138199810Y-117625715D01*
X138437905Y-117625715D01*
X138533143Y-117578096D01*
X138580762Y-117530477D01*
X138628381Y-117435239D01*
X138628381Y-117197143D01*
X138580762Y-117101905D01*
X138533143Y-117054286D01*
D14*
X156154381Y-93813334D02*
X155678190Y-93480000D01*
X156154381Y-93241905D02*
X155154381Y-93241905D01*
X155154381Y-93622858D01*
X155202000Y-93718096D01*
X155249619Y-93765715D01*
X155344857Y-93813334D01*
X155487714Y-93813334D01*
X155582952Y-93765715D01*
X155630571Y-93718096D01*
X155678190Y-93622858D01*
X155678190Y-93241905D01*
X156154381Y-94765715D02*
X156154381Y-94194286D01*
X156154381Y-94480000D02*
X155154381Y-94480000D01*
X155297238Y-94384762D01*
X155392476Y-94289524D01*
X155440095Y-94194286D01*
X125134666Y-107386381D02*
X125468000Y-106910190D01*
X125706095Y-107386381D02*
X125706095Y-106386381D01*
X125325142Y-106386381D01*
X125229904Y-106434000D01*
X125182285Y-106481619D01*
X125134666Y-106576857D01*
X125134666Y-106719714D01*
X125182285Y-106814952D01*
X125229904Y-106862571D01*
X125325142Y-106910190D01*
X125706095Y-106910190D01*
X124753714Y-106481619D02*
X124706095Y-106434000D01*
X124610857Y-106386381D01*
X124372761Y-106386381D01*
X124277523Y-106434000D01*
X124229904Y-106481619D01*
X124182285Y-106576857D01*
X124182285Y-106672095D01*
X124229904Y-106814952D01*
X124801333Y-107386381D01*
X124182285Y-107386381D01*
X125134666Y-104846381D02*
X125468000Y-104370190D01*
X125706095Y-104846381D02*
X125706095Y-103846381D01*
X125325142Y-103846381D01*
X125229904Y-103894000D01*
X125182285Y-103941619D01*
X125134666Y-104036857D01*
X125134666Y-104179714D01*
X125182285Y-104274952D01*
X125229904Y-104322571D01*
X125325142Y-104370190D01*
X125706095Y-104370190D01*
X124801333Y-103846381D02*
X124182285Y-103846381D01*
X124515619Y-104227333D01*
X124372761Y-104227333D01*
X124277523Y-104274952D01*
X124229904Y-104322571D01*
X124182285Y-104417810D01*
X124182285Y-104655905D01*
X124229904Y-104751143D01*
X124277523Y-104798762D01*
X124372761Y-104846381D01*
X124658476Y-104846381D01*
X124753714Y-104798762D01*
X124801333Y-104751143D01*
D12*
X150010000Y-97181143D02*
X150310000Y-96752571D01*
X150524285Y-97181143D02*
X150524285Y-96281143D01*
X150181428Y-96281143D01*
X150095714Y-96324000D01*
X150052857Y-96366857D01*
X150010000Y-96452571D01*
X150010000Y-96581143D01*
X150052857Y-96666857D01*
X150095714Y-96709714D01*
X150181428Y-96752571D01*
X150524285Y-96752571D01*
X149238571Y-96281143D02*
X149410000Y-96281143D01*
X149495714Y-96324000D01*
X149538571Y-96366857D01*
X149624285Y-96495429D01*
X149667142Y-96666857D01*
X149667142Y-97009714D01*
X149624285Y-97095429D01*
X149581428Y-97138286D01*
X149495714Y-97181143D01*
X149324285Y-97181143D01*
X149238571Y-97138286D01*
X149195714Y-97095429D01*
X149152857Y-97009714D01*
X149152857Y-96795429D01*
X149195714Y-96709714D01*
X149238571Y-96666857D01*
X149324285Y-96624000D01*
X149495714Y-96624000D01*
X149581428Y-96666857D01*
X149624285Y-96709714D01*
X149667142Y-96795429D01*
D14*
X153836666Y-105354381D02*
X154170000Y-104878190D01*
X154408095Y-105354381D02*
X154408095Y-104354381D01*
X154027142Y-104354381D01*
X153931904Y-104402000D01*
X153884285Y-104449619D01*
X153836666Y-104544857D01*
X153836666Y-104687714D01*
X153884285Y-104782952D01*
X153931904Y-104830571D01*
X154027142Y-104878190D01*
X154408095Y-104878190D01*
X153503333Y-104354381D02*
X152836666Y-104354381D01*
X153265238Y-105354381D01*
X132532381Y-103465334D02*
X132056190Y-103132000D01*
X132532381Y-102893905D02*
X131532381Y-102893905D01*
X131532381Y-103274858D01*
X131580000Y-103370096D01*
X131627619Y-103417715D01*
X131722857Y-103465334D01*
X131865714Y-103465334D01*
X131960952Y-103417715D01*
X132008571Y-103370096D01*
X132056190Y-103274858D01*
X132056190Y-102893905D01*
X131960952Y-104036762D02*
X131913333Y-103941524D01*
X131865714Y-103893905D01*
X131770476Y-103846286D01*
X131722857Y-103846286D01*
X131627619Y-103893905D01*
X131580000Y-103941524D01*
X131532381Y-104036762D01*
X131532381Y-104227239D01*
X131580000Y-104322477D01*
X131627619Y-104370096D01*
X131722857Y-104417715D01*
X131770476Y-104417715D01*
X131865714Y-104370096D01*
X131913333Y-104322477D01*
X131960952Y-104227239D01*
X131960952Y-104036762D01*
X132008571Y-103941524D01*
X132056190Y-103893905D01*
X132151429Y-103846286D01*
X132341905Y-103846286D01*
X132437143Y-103893905D01*
X132484762Y-103941524D01*
X132532381Y-104036762D01*
X132532381Y-104227239D01*
X132484762Y-104322477D01*
X132437143Y-104370096D01*
X132341905Y-104417715D01*
X132151429Y-104417715D01*
X132056190Y-104370096D01*
X132008571Y-104322477D01*
X131960952Y-104227239D01*
X150026666Y-90876381D02*
X150360000Y-90400190D01*
X150598095Y-90876381D02*
X150598095Y-89876381D01*
X150217142Y-89876381D01*
X150121904Y-89924000D01*
X150074285Y-89971619D01*
X150026666Y-90066857D01*
X150026666Y-90209714D01*
X150074285Y-90304952D01*
X150121904Y-90352571D01*
X150217142Y-90400190D01*
X150598095Y-90400190D01*
X149550476Y-90876381D02*
X149360000Y-90876381D01*
X149264761Y-90828762D01*
X149217142Y-90781143D01*
X149121904Y-90638286D01*
X149074285Y-90447810D01*
X149074285Y-90066857D01*
X149121904Y-89971619D01*
X149169523Y-89924000D01*
X149264761Y-89876381D01*
X149455238Y-89876381D01*
X149550476Y-89924000D01*
X149598095Y-89971619D01*
X149645714Y-90066857D01*
X149645714Y-90304952D01*
X149598095Y-90400190D01*
X149550476Y-90447810D01*
X149455238Y-90495429D01*
X149264761Y-90495429D01*
X149169523Y-90447810D01*
X149121904Y-90400190D01*
X149074285Y-90304952D01*
X160726381Y-112641143D02*
X160250190Y-112307809D01*
X160726381Y-112069714D02*
X159726381Y-112069714D01*
X159726381Y-112450667D01*
X159774000Y-112545905D01*
X159821619Y-112593524D01*
X159916857Y-112641143D01*
X160059714Y-112641143D01*
X160154952Y-112593524D01*
X160202571Y-112545905D01*
X160250190Y-112450667D01*
X160250190Y-112069714D01*
X160726381Y-113593524D02*
X160726381Y-113022095D01*
X160726381Y-113307809D02*
X159726381Y-113307809D01*
X159869238Y-113212571D01*
X159964476Y-113117333D01*
X160012095Y-113022095D01*
X159726381Y-114212571D02*
X159726381Y-114307810D01*
X159774000Y-114403048D01*
X159821619Y-114450667D01*
X159916857Y-114498286D01*
X160107333Y-114545905D01*
X160345429Y-114545905D01*
X160535905Y-114498286D01*
X160631143Y-114450667D01*
X160678762Y-114403048D01*
X160726381Y-114307810D01*
X160726381Y-114212571D01*
X160678762Y-114117333D01*
X160631143Y-114069714D01*
X160535905Y-114022095D01*
X160345429Y-113974476D01*
X160107333Y-113974476D01*
X159916857Y-114022095D01*
X159821619Y-114069714D01*
X159774000Y-114117333D01*
X159726381Y-114212571D01*
X144202381Y-93337143D02*
X143726190Y-93003809D01*
X144202381Y-92765714D02*
X143202381Y-92765714D01*
X143202381Y-93146667D01*
X143250000Y-93241905D01*
X143297619Y-93289524D01*
X143392857Y-93337143D01*
X143535714Y-93337143D01*
X143630952Y-93289524D01*
X143678571Y-93241905D01*
X143726190Y-93146667D01*
X143726190Y-92765714D01*
X144202381Y-94289524D02*
X144202381Y-93718095D01*
X144202381Y-94003809D02*
X143202381Y-94003809D01*
X143345238Y-93908571D01*
X143440476Y-93813333D01*
X143488095Y-93718095D01*
X144202381Y-95241905D02*
X144202381Y-94670476D01*
X144202381Y-94956190D02*
X143202381Y-94956190D01*
X143345238Y-94860952D01*
X143440476Y-94765714D01*
X143488095Y-94670476D01*
X125038572Y-94387143D02*
X125338572Y-93958571D01*
X125552857Y-94387143D02*
X125552857Y-93487143D01*
X125210000Y-93487143D01*
X125124286Y-93530000D01*
X125081429Y-93572857D01*
X125038572Y-93658571D01*
X125038572Y-93787143D01*
X125081429Y-93872857D01*
X125124286Y-93915714D01*
X125210000Y-93958571D01*
X125552857Y-93958571D01*
X124181429Y-94387143D02*
X124695714Y-94387143D01*
X124438572Y-94387143D02*
X124438572Y-93487143D01*
X124524286Y-93615714D01*
X124610000Y-93701429D01*
X124695714Y-93744286D01*
X123838571Y-93572857D02*
X123795714Y-93530000D01*
X123710000Y-93487143D01*
X123495714Y-93487143D01*
X123410000Y-93530000D01*
X123367143Y-93572857D01*
X123324286Y-93658571D01*
X123324286Y-93744286D01*
X123367143Y-93872857D01*
X123881429Y-94387143D01*
X123324286Y-94387143D01*
X125038572Y-96927143D02*
X125338572Y-96498571D01*
X125552857Y-96927143D02*
X125552857Y-96027143D01*
X125210000Y-96027143D01*
X125124286Y-96070000D01*
X125081429Y-96112857D01*
X125038572Y-96198571D01*
X125038572Y-96327143D01*
X125081429Y-96412857D01*
X125124286Y-96455714D01*
X125210000Y-96498571D01*
X125552857Y-96498571D01*
X124181429Y-96927143D02*
X124695714Y-96927143D01*
X124438572Y-96927143D02*
X124438572Y-96027143D01*
X124524286Y-96155714D01*
X124610000Y-96241429D01*
X124695714Y-96284286D01*
X123881429Y-96027143D02*
X123324286Y-96027143D01*
X123624286Y-96370000D01*
X123495714Y-96370000D01*
X123410000Y-96412857D01*
X123367143Y-96455714D01*
X123324286Y-96541429D01*
X123324286Y-96755714D01*
X123367143Y-96841429D01*
X123410000Y-96884286D01*
X123495714Y-96927143D01*
X123752857Y-96927143D01*
X123838571Y-96884286D01*
X123881429Y-96841429D01*
X125038572Y-99467143D02*
X125338572Y-99038571D01*
X125552857Y-99467143D02*
X125552857Y-98567143D01*
X125210000Y-98567143D01*
X125124286Y-98610000D01*
X125081429Y-98652857D01*
X125038572Y-98738571D01*
X125038572Y-98867143D01*
X125081429Y-98952857D01*
X125124286Y-98995714D01*
X125210000Y-99038571D01*
X125552857Y-99038571D01*
X124181429Y-99467143D02*
X124695714Y-99467143D01*
X124438572Y-99467143D02*
X124438572Y-98567143D01*
X124524286Y-98695714D01*
X124610000Y-98781429D01*
X124695714Y-98824286D01*
X123410000Y-98867143D02*
X123410000Y-99467143D01*
X123624286Y-98524286D02*
X123838571Y-99167143D01*
X123281429Y-99167143D01*
X125038572Y-102007143D02*
X125338572Y-101578571D01*
X125552857Y-102007143D02*
X125552857Y-101107143D01*
X125210000Y-101107143D01*
X125124286Y-101150000D01*
X125081429Y-101192857D01*
X125038572Y-101278571D01*
X125038572Y-101407143D01*
X125081429Y-101492857D01*
X125124286Y-101535714D01*
X125210000Y-101578571D01*
X125552857Y-101578571D01*
X124181429Y-102007143D02*
X124695714Y-102007143D01*
X124438572Y-102007143D02*
X124438572Y-101107143D01*
X124524286Y-101235714D01*
X124610000Y-101321429D01*
X124695714Y-101364286D01*
X123367143Y-101107143D02*
X123795714Y-101107143D01*
X123838571Y-101535714D01*
X123795714Y-101492857D01*
X123710000Y-101450000D01*
X123495714Y-101450000D01*
X123410000Y-101492857D01*
X123367143Y-101535714D01*
X123324286Y-101621429D01*
X123324286Y-101835714D01*
X123367143Y-101921429D01*
X123410000Y-101964286D01*
X123495714Y-102007143D01*
X123710000Y-102007143D01*
X123795714Y-101964286D01*
X123838571Y-101921429D01*
D12*
X170140381Y-81788095D02*
X170949905Y-81788095D01*
X171045143Y-81835714D01*
X171092762Y-81883333D01*
X171140381Y-81978571D01*
X171140381Y-82169048D01*
X171092762Y-82264286D01*
X171045143Y-82311905D01*
X170949905Y-82359524D01*
X170140381Y-82359524D01*
X171140381Y-83359524D02*
X171140381Y-82788095D01*
X171140381Y-83073809D02*
X170140381Y-83073809D01*
X170283238Y-82978571D01*
X170378476Y-82883333D01*
X170426095Y-82788095D01*
M02*
