G04 #@! TF.FileFunction,Legend,Top*
%FSLAX46Y46*%
G04 Gerber Fmt 4.6, Leading zero omitted, Abs format (unit mm)*
G04 Created by KiCad (PCBNEW 4.0.1-stable) date Sun 03 Jan 2016 01:50:34 PM EET*
%MOMM*%
G01*
G04 APERTURE LIST*
%ADD10C,0.100000*%
%ADD11C,0.150000*%
%ADD12C,0.160000*%
%ADD13C,0.300000*%
%ADD14C,0.200000*%
%ADD15C,0.299720*%
%ADD16C,0.127000*%
G04 APERTURE END LIST*
D10*
D11*
X166042572Y-101038429D02*
X166351143Y-101038429D01*
X166158286Y-101578429D02*
X166158286Y-100884143D01*
X166196858Y-100807000D01*
X166274000Y-100768429D01*
X166351143Y-100768429D01*
X166736857Y-101578429D02*
X166659715Y-101539857D01*
X166621143Y-101501286D01*
X166582572Y-101424143D01*
X166582572Y-101192714D01*
X166621143Y-101115571D01*
X166659715Y-101077000D01*
X166736857Y-101038429D01*
X166852572Y-101038429D01*
X166929715Y-101077000D01*
X166968286Y-101115571D01*
X167006857Y-101192714D01*
X167006857Y-101424143D01*
X166968286Y-101501286D01*
X166929715Y-101539857D01*
X166852572Y-101578429D01*
X166736857Y-101578429D01*
X167354000Y-101578429D02*
X167354000Y-101038429D01*
X167354000Y-101192714D02*
X167392572Y-101115571D01*
X167431143Y-101077000D01*
X167508286Y-101038429D01*
X167585429Y-101038429D01*
X168202572Y-101038429D02*
X168202572Y-101694143D01*
X168164001Y-101771286D01*
X168125429Y-101809857D01*
X168048286Y-101848429D01*
X167932572Y-101848429D01*
X167855429Y-101809857D01*
X168202572Y-101539857D02*
X168125429Y-101578429D01*
X167971143Y-101578429D01*
X167894001Y-101539857D01*
X167855429Y-101501286D01*
X167816858Y-101424143D01*
X167816858Y-101192714D01*
X167855429Y-101115571D01*
X167894001Y-101077000D01*
X167971143Y-101038429D01*
X168125429Y-101038429D01*
X168202572Y-101077000D01*
X168935429Y-101038429D02*
X168935429Y-101694143D01*
X168896858Y-101771286D01*
X168858286Y-101809857D01*
X168781143Y-101848429D01*
X168665429Y-101848429D01*
X168588286Y-101809857D01*
X168935429Y-101539857D02*
X168858286Y-101578429D01*
X168704000Y-101578429D01*
X168626858Y-101539857D01*
X168588286Y-101501286D01*
X168549715Y-101424143D01*
X168549715Y-101192714D01*
X168588286Y-101115571D01*
X168626858Y-101077000D01*
X168704000Y-101038429D01*
X168858286Y-101038429D01*
X168935429Y-101077000D01*
X169629715Y-101539857D02*
X169552572Y-101578429D01*
X169398286Y-101578429D01*
X169321143Y-101539857D01*
X169282572Y-101462714D01*
X169282572Y-101154143D01*
X169321143Y-101077000D01*
X169398286Y-101038429D01*
X169552572Y-101038429D01*
X169629715Y-101077000D01*
X169668286Y-101154143D01*
X169668286Y-101231286D01*
X169282572Y-101308429D01*
X164943286Y-102476714D02*
X164904714Y-102438143D01*
X164827571Y-102399571D01*
X164750429Y-102399571D01*
X164673286Y-102438143D01*
X164634714Y-102476714D01*
X164596143Y-102553857D01*
X164596143Y-102631000D01*
X164634714Y-102708143D01*
X164673286Y-102746714D01*
X164750429Y-102785286D01*
X164827571Y-102785286D01*
X164904714Y-102746714D01*
X164943286Y-102708143D01*
X164943286Y-102399571D02*
X164943286Y-102708143D01*
X164981857Y-102746714D01*
X165020429Y-102746714D01*
X165097571Y-102708143D01*
X165136143Y-102631000D01*
X165136143Y-102438143D01*
X165059000Y-102322429D01*
X164943286Y-102245286D01*
X164789000Y-102206714D01*
X164634714Y-102245286D01*
X164519000Y-102322429D01*
X164441857Y-102438143D01*
X164403286Y-102592429D01*
X164441857Y-102746714D01*
X164519000Y-102862429D01*
X164634714Y-102939571D01*
X164789000Y-102978143D01*
X164943286Y-102939571D01*
X165059000Y-102862429D01*
X165830429Y-102322429D02*
X165830429Y-102978143D01*
X165791858Y-103055286D01*
X165753286Y-103093857D01*
X165676143Y-103132429D01*
X165560429Y-103132429D01*
X165483286Y-103093857D01*
X165830429Y-102823857D02*
X165753286Y-102862429D01*
X165599000Y-102862429D01*
X165521858Y-102823857D01*
X165483286Y-102785286D01*
X165444715Y-102708143D01*
X165444715Y-102476714D01*
X165483286Y-102399571D01*
X165521858Y-102361000D01*
X165599000Y-102322429D01*
X165753286Y-102322429D01*
X165830429Y-102361000D01*
X166216143Y-102862429D02*
X166216143Y-102322429D01*
X166216143Y-102399571D02*
X166254715Y-102361000D01*
X166331857Y-102322429D01*
X166447572Y-102322429D01*
X166524715Y-102361000D01*
X166563286Y-102438143D01*
X166563286Y-102862429D01*
X166563286Y-102438143D02*
X166601857Y-102361000D01*
X166679000Y-102322429D01*
X166794715Y-102322429D01*
X166871857Y-102361000D01*
X166910429Y-102438143D01*
X166910429Y-102862429D01*
X167643286Y-102862429D02*
X167643286Y-102438143D01*
X167604715Y-102361000D01*
X167527572Y-102322429D01*
X167373286Y-102322429D01*
X167296143Y-102361000D01*
X167643286Y-102823857D02*
X167566143Y-102862429D01*
X167373286Y-102862429D01*
X167296143Y-102823857D01*
X167257572Y-102746714D01*
X167257572Y-102669571D01*
X167296143Y-102592429D01*
X167373286Y-102553857D01*
X167566143Y-102553857D01*
X167643286Y-102515286D01*
X168029000Y-102862429D02*
X168029000Y-102322429D01*
X168029000Y-102052429D02*
X167990429Y-102091000D01*
X168029000Y-102129571D01*
X168067572Y-102091000D01*
X168029000Y-102052429D01*
X168029000Y-102129571D01*
X168530428Y-102862429D02*
X168453286Y-102823857D01*
X168414714Y-102746714D01*
X168414714Y-102052429D01*
X168839000Y-102785286D02*
X168877572Y-102823857D01*
X168839000Y-102862429D01*
X168800429Y-102823857D01*
X168839000Y-102785286D01*
X168839000Y-102862429D01*
X169571857Y-102823857D02*
X169494714Y-102862429D01*
X169340428Y-102862429D01*
X169263286Y-102823857D01*
X169224714Y-102785286D01*
X169186143Y-102708143D01*
X169186143Y-102476714D01*
X169224714Y-102399571D01*
X169263286Y-102361000D01*
X169340428Y-102322429D01*
X169494714Y-102322429D01*
X169571857Y-102361000D01*
X170034714Y-102862429D02*
X169957572Y-102823857D01*
X169919000Y-102785286D01*
X169880429Y-102708143D01*
X169880429Y-102476714D01*
X169919000Y-102399571D01*
X169957572Y-102361000D01*
X170034714Y-102322429D01*
X170150429Y-102322429D01*
X170227572Y-102361000D01*
X170266143Y-102399571D01*
X170304714Y-102476714D01*
X170304714Y-102708143D01*
X170266143Y-102785286D01*
X170227572Y-102823857D01*
X170150429Y-102862429D01*
X170034714Y-102862429D01*
X170651857Y-102862429D02*
X170651857Y-102322429D01*
X170651857Y-102399571D02*
X170690429Y-102361000D01*
X170767571Y-102322429D01*
X170883286Y-102322429D01*
X170960429Y-102361000D01*
X170999000Y-102438143D01*
X170999000Y-102862429D01*
X170999000Y-102438143D02*
X171037571Y-102361000D01*
X171114714Y-102322429D01*
X171230429Y-102322429D01*
X171307571Y-102361000D01*
X171346143Y-102438143D01*
X171346143Y-102862429D01*
D12*
X167132000Y-99314000D02*
G75*
G03X167894000Y-98552000I0J762000D01*
G01*
X167132000Y-99568000D02*
G75*
G03X168148000Y-98552000I0J1016000D01*
G01*
X167132000Y-99060000D02*
G75*
G03X167640000Y-98552000I0J508000D01*
G01*
D13*
X169787143Y-98056000D02*
X169644286Y-97984571D01*
X169430000Y-97984571D01*
X169215715Y-98056000D01*
X169072857Y-98198857D01*
X169001429Y-98341714D01*
X168930000Y-98627429D01*
X168930000Y-98841714D01*
X169001429Y-99127429D01*
X169072857Y-99270286D01*
X169215715Y-99413143D01*
X169430000Y-99484571D01*
X169572857Y-99484571D01*
X169787143Y-99413143D01*
X169858572Y-99341714D01*
X169858572Y-98841714D01*
X169572857Y-98841714D01*
X170787143Y-97984571D02*
X171072857Y-97984571D01*
X171215715Y-98056000D01*
X171358572Y-98198857D01*
X171430000Y-98484571D01*
X171430000Y-98984571D01*
X171358572Y-99270286D01*
X171215715Y-99413143D01*
X171072857Y-99484571D01*
X170787143Y-99484571D01*
X170644286Y-99413143D01*
X170501429Y-99270286D01*
X170430000Y-98984571D01*
X170430000Y-98484571D01*
X170501429Y-98198857D01*
X170644286Y-98056000D01*
X170787143Y-97984571D01*
X165060286Y-98698857D02*
X164560286Y-98698857D01*
X164560286Y-99484571D02*
X164560286Y-97984571D01*
X165274572Y-97984571D01*
D14*
X168499832Y-98552000D02*
G75*
G03X168499832Y-98552000I-1367832J0D01*
G01*
D12*
X164958286Y-94947143D02*
X164958286Y-94047143D01*
X165258286Y-94690000D01*
X165558286Y-94047143D01*
X165558286Y-94947143D01*
X166372571Y-94947143D02*
X166372571Y-94475714D01*
X166329714Y-94390000D01*
X166244000Y-94347143D01*
X166072571Y-94347143D01*
X165986857Y-94390000D01*
X166372571Y-94904286D02*
X166286857Y-94947143D01*
X166072571Y-94947143D01*
X165986857Y-94904286D01*
X165944000Y-94818571D01*
X165944000Y-94732857D01*
X165986857Y-94647143D01*
X166072571Y-94604286D01*
X166286857Y-94604286D01*
X166372571Y-94561429D01*
X167186857Y-94947143D02*
X167186857Y-94047143D01*
X167186857Y-94904286D02*
X167101143Y-94947143D01*
X166929714Y-94947143D01*
X166844000Y-94904286D01*
X166801143Y-94861429D01*
X166758286Y-94775714D01*
X166758286Y-94518571D01*
X166801143Y-94432857D01*
X166844000Y-94390000D01*
X166929714Y-94347143D01*
X167101143Y-94347143D01*
X167186857Y-94390000D01*
X167958286Y-94904286D02*
X167872572Y-94947143D01*
X167701143Y-94947143D01*
X167615429Y-94904286D01*
X167572572Y-94818571D01*
X167572572Y-94475714D01*
X167615429Y-94390000D01*
X167701143Y-94347143D01*
X167872572Y-94347143D01*
X167958286Y-94390000D01*
X168001143Y-94475714D01*
X168001143Y-94561429D01*
X167572572Y-94647143D01*
X169072572Y-94947143D02*
X169072572Y-94047143D01*
X169072572Y-94390000D02*
X169158286Y-94347143D01*
X169329715Y-94347143D01*
X169415429Y-94390000D01*
X169458286Y-94432857D01*
X169501143Y-94518571D01*
X169501143Y-94775714D01*
X169458286Y-94861429D01*
X169415429Y-94904286D01*
X169329715Y-94947143D01*
X169158286Y-94947143D01*
X169072572Y-94904286D01*
X169801143Y-94347143D02*
X170015429Y-94947143D01*
X170229715Y-94347143D02*
X170015429Y-94947143D01*
X169929715Y-95161429D01*
X169886858Y-95204286D01*
X169801143Y-95247143D01*
X164486858Y-96367143D02*
X164486858Y-95467143D01*
X164786858Y-96110000D01*
X165086858Y-95467143D01*
X165086858Y-96367143D01*
X165901143Y-96367143D02*
X165901143Y-95895714D01*
X165858286Y-95810000D01*
X165772572Y-95767143D01*
X165601143Y-95767143D01*
X165515429Y-95810000D01*
X165901143Y-96324286D02*
X165815429Y-96367143D01*
X165601143Y-96367143D01*
X165515429Y-96324286D01*
X165472572Y-96238571D01*
X165472572Y-96152857D01*
X165515429Y-96067143D01*
X165601143Y-96024286D01*
X165815429Y-96024286D01*
X165901143Y-95981429D01*
X166244000Y-96367143D02*
X166715429Y-95767143D01*
X166244000Y-95767143D02*
X166715429Y-96367143D01*
X167744000Y-96367143D02*
X167744000Y-95467143D01*
X168086857Y-95467143D01*
X168172571Y-95510000D01*
X168215428Y-95552857D01*
X168258285Y-95638571D01*
X168258285Y-95767143D01*
X168215428Y-95852857D01*
X168172571Y-95895714D01*
X168086857Y-95938571D01*
X167744000Y-95938571D01*
X169029714Y-96367143D02*
X169029714Y-95895714D01*
X168986857Y-95810000D01*
X168901143Y-95767143D01*
X168729714Y-95767143D01*
X168644000Y-95810000D01*
X169029714Y-96324286D02*
X168944000Y-96367143D01*
X168729714Y-96367143D01*
X168644000Y-96324286D01*
X168601143Y-96238571D01*
X168601143Y-96152857D01*
X168644000Y-96067143D01*
X168729714Y-96024286D01*
X168944000Y-96024286D01*
X169029714Y-95981429D01*
X169372571Y-95767143D02*
X169586857Y-96367143D01*
X169801143Y-95767143D02*
X169586857Y-96367143D01*
X169501143Y-96581429D01*
X169458286Y-96624286D01*
X169372571Y-96667143D01*
X170144000Y-95767143D02*
X170144000Y-96367143D01*
X170144000Y-95852857D02*
X170186857Y-95810000D01*
X170272571Y-95767143D01*
X170401143Y-95767143D01*
X170486857Y-95810000D01*
X170529714Y-95895714D01*
X170529714Y-96367143D01*
X171301143Y-96324286D02*
X171215429Y-96367143D01*
X171044000Y-96367143D01*
X170958286Y-96324286D01*
X170915429Y-96238571D01*
X170915429Y-95895714D01*
X170958286Y-95810000D01*
X171044000Y-95767143D01*
X171215429Y-95767143D01*
X171301143Y-95810000D01*
X171344000Y-95895714D01*
X171344000Y-95981429D01*
X170915429Y-96067143D01*
X163972571Y-91899143D02*
X163972571Y-90999143D01*
X164186856Y-90999143D01*
X164315428Y-91042000D01*
X164401142Y-91127714D01*
X164443999Y-91213429D01*
X164486856Y-91384857D01*
X164486856Y-91513429D01*
X164443999Y-91684857D01*
X164401142Y-91770571D01*
X164315428Y-91856286D01*
X164186856Y-91899143D01*
X163972571Y-91899143D01*
X165215428Y-91856286D02*
X165129714Y-91899143D01*
X164958285Y-91899143D01*
X164872571Y-91856286D01*
X164829714Y-91770571D01*
X164829714Y-91427714D01*
X164872571Y-91342000D01*
X164958285Y-91299143D01*
X165129714Y-91299143D01*
X165215428Y-91342000D01*
X165258285Y-91427714D01*
X165258285Y-91513429D01*
X164829714Y-91599143D01*
X165644000Y-91899143D02*
X165644000Y-91299143D01*
X165644000Y-91384857D02*
X165686857Y-91342000D01*
X165772571Y-91299143D01*
X165901143Y-91299143D01*
X165986857Y-91342000D01*
X166029714Y-91427714D01*
X166029714Y-91899143D01*
X166029714Y-91427714D02*
X166072571Y-91342000D01*
X166158285Y-91299143D01*
X166286857Y-91299143D01*
X166372571Y-91342000D01*
X166415428Y-91427714D01*
X166415428Y-91899143D01*
X166972571Y-91899143D02*
X166886857Y-91856286D01*
X166844000Y-91813429D01*
X166801143Y-91727714D01*
X166801143Y-91470571D01*
X166844000Y-91384857D01*
X166886857Y-91342000D01*
X166972571Y-91299143D01*
X167101143Y-91299143D01*
X167186857Y-91342000D01*
X167229714Y-91384857D01*
X167272571Y-91470571D01*
X167272571Y-91727714D01*
X167229714Y-91813429D01*
X167186857Y-91856286D01*
X167101143Y-91899143D01*
X166972571Y-91899143D01*
X168644000Y-91427714D02*
X168772571Y-91470571D01*
X168815428Y-91513429D01*
X168858285Y-91599143D01*
X168858285Y-91727714D01*
X168815428Y-91813429D01*
X168772571Y-91856286D01*
X168686857Y-91899143D01*
X168344000Y-91899143D01*
X168344000Y-90999143D01*
X168644000Y-90999143D01*
X168729714Y-91042000D01*
X168772571Y-91084857D01*
X168815428Y-91170571D01*
X168815428Y-91256286D01*
X168772571Y-91342000D01*
X168729714Y-91384857D01*
X168644000Y-91427714D01*
X168344000Y-91427714D01*
X169372571Y-91899143D02*
X169286857Y-91856286D01*
X169244000Y-91813429D01*
X169201143Y-91727714D01*
X169201143Y-91470571D01*
X169244000Y-91384857D01*
X169286857Y-91342000D01*
X169372571Y-91299143D01*
X169501143Y-91299143D01*
X169586857Y-91342000D01*
X169629714Y-91384857D01*
X169672571Y-91470571D01*
X169672571Y-91727714D01*
X169629714Y-91813429D01*
X169586857Y-91856286D01*
X169501143Y-91899143D01*
X169372571Y-91899143D01*
X170444000Y-91899143D02*
X170444000Y-91427714D01*
X170401143Y-91342000D01*
X170315429Y-91299143D01*
X170144000Y-91299143D01*
X170058286Y-91342000D01*
X170444000Y-91856286D02*
X170358286Y-91899143D01*
X170144000Y-91899143D01*
X170058286Y-91856286D01*
X170015429Y-91770571D01*
X170015429Y-91684857D01*
X170058286Y-91599143D01*
X170144000Y-91556286D01*
X170358286Y-91556286D01*
X170444000Y-91513429D01*
X170872572Y-91899143D02*
X170872572Y-91299143D01*
X170872572Y-91470571D02*
X170915429Y-91384857D01*
X170958286Y-91342000D01*
X171044000Y-91299143D01*
X171129715Y-91299143D01*
X171815429Y-91899143D02*
X171815429Y-90999143D01*
X171815429Y-91856286D02*
X171729715Y-91899143D01*
X171558286Y-91899143D01*
X171472572Y-91856286D01*
X171429715Y-91813429D01*
X171386858Y-91727714D01*
X171386858Y-91470571D01*
X171429715Y-91384857D01*
X171472572Y-91342000D01*
X171558286Y-91299143D01*
X171729715Y-91299143D01*
X171815429Y-91342000D01*
X166436857Y-93319143D02*
X166136857Y-92890571D01*
X165922572Y-93319143D02*
X165922572Y-92419143D01*
X166265429Y-92419143D01*
X166351143Y-92462000D01*
X166394000Y-92504857D01*
X166436857Y-92590571D01*
X166436857Y-92719143D01*
X166394000Y-92804857D01*
X166351143Y-92847714D01*
X166265429Y-92890571D01*
X165922572Y-92890571D01*
X166822572Y-92847714D02*
X167122572Y-92847714D01*
X167251143Y-93319143D02*
X166822572Y-93319143D01*
X166822572Y-92419143D01*
X167251143Y-92419143D01*
X167508286Y-92419143D02*
X167808286Y-93319143D01*
X168108286Y-92419143D01*
X168408287Y-93233429D02*
X168451144Y-93276286D01*
X168408287Y-93319143D01*
X168365430Y-93276286D01*
X168408287Y-93233429D01*
X168408287Y-93319143D01*
X169479715Y-93062000D02*
X169908286Y-93062000D01*
X169394000Y-93319143D02*
X169694000Y-92419143D01*
X169994000Y-93319143D01*
D11*
X129540000Y-90170000D02*
X127000000Y-90170000D01*
X132360000Y-90450000D02*
X130810000Y-90450000D01*
X129540000Y-90170000D02*
X129540000Y-87630000D01*
X130810000Y-87350000D02*
X132360000Y-87350000D01*
X132360000Y-87350000D02*
X132360000Y-90450000D01*
X129540000Y-87630000D02*
X127000000Y-87630000D01*
X127000000Y-87630000D02*
X127000000Y-90170000D01*
X137160000Y-90170000D02*
X137160000Y-105410000D01*
X137160000Y-105410000D02*
X134620000Y-105410000D01*
X134620000Y-105410000D02*
X134620000Y-90170000D01*
X137440000Y-87350000D02*
X137440000Y-88900000D01*
X137160000Y-90170000D02*
X134620000Y-90170000D01*
X134340000Y-88900000D02*
X134340000Y-87350000D01*
X134340000Y-87350000D02*
X137440000Y-87350000D01*
X160020000Y-102870000D02*
X160020000Y-87630000D01*
X160020000Y-87630000D02*
X162560000Y-87630000D01*
X162560000Y-87630000D02*
X162560000Y-102870000D01*
X159740000Y-105690000D02*
X159740000Y-104140000D01*
X160020000Y-102870000D02*
X162560000Y-102870000D01*
X162840000Y-104140000D02*
X162840000Y-105690000D01*
X162840000Y-105690000D02*
X159740000Y-105690000D01*
X165100000Y-76200000D02*
X170180000Y-76200000D01*
X170180000Y-76200000D02*
X170180000Y-73660000D01*
X170180000Y-73660000D02*
X165100000Y-73660000D01*
X162280000Y-73380000D02*
X163830000Y-73380000D01*
X165100000Y-73660000D02*
X165100000Y-76200000D01*
X163830000Y-76480000D02*
X162280000Y-76480000D01*
X162280000Y-76480000D02*
X162280000Y-73380000D01*
X142240000Y-71120000D02*
X157480000Y-71120000D01*
X157480000Y-71120000D02*
X157480000Y-73660000D01*
X157480000Y-73660000D02*
X142240000Y-73660000D01*
X139420000Y-70840000D02*
X140970000Y-70840000D01*
X142240000Y-71120000D02*
X142240000Y-73660000D01*
X140970000Y-73940000D02*
X139420000Y-73940000D01*
X139420000Y-73940000D02*
X139420000Y-70840000D01*
X141224000Y-109220000D02*
X156464000Y-109220000D01*
X156464000Y-109220000D02*
X156464000Y-111760000D01*
X156464000Y-111760000D02*
X141224000Y-111760000D01*
X138404000Y-108940000D02*
X139954000Y-108940000D01*
X141224000Y-109220000D02*
X141224000Y-111760000D01*
X139954000Y-112040000D02*
X138404000Y-112040000D01*
X138404000Y-112040000D02*
X138404000Y-108940000D01*
D15*
X171909740Y-110030260D02*
X171909740Y-116029740D01*
X171909740Y-116029740D02*
X165910260Y-116029740D01*
X165910260Y-116029740D02*
X165910260Y-110030260D01*
X165910260Y-110030260D02*
X171909740Y-110030260D01*
X126540260Y-112570260D02*
X132539740Y-112570260D01*
X132539740Y-112570260D02*
X132539740Y-118569740D01*
X132539740Y-118569740D02*
X126540260Y-118569740D01*
X126540260Y-118569740D02*
X126540260Y-112570260D01*
D11*
X125182381Y-89479333D02*
X125896667Y-89479333D01*
X126039524Y-89526953D01*
X126134762Y-89622191D01*
X126182381Y-89765048D01*
X126182381Y-89860286D01*
X126182381Y-89003143D02*
X125182381Y-89003143D01*
X125182381Y-88622190D01*
X125230000Y-88526952D01*
X125277619Y-88479333D01*
X125372857Y-88431714D01*
X125515714Y-88431714D01*
X125610952Y-88479333D01*
X125658571Y-88526952D01*
X125706190Y-88622190D01*
X125706190Y-89003143D01*
X126182381Y-87479333D02*
X126182381Y-88050762D01*
X126182381Y-87765048D02*
X125182381Y-87765048D01*
X125325238Y-87860286D01*
X125420476Y-87955524D01*
X125468095Y-88050762D01*
X135151905Y-86558381D02*
X135151905Y-85558381D01*
X135532858Y-85558381D01*
X135628096Y-85606000D01*
X135675715Y-85653619D01*
X135723334Y-85748857D01*
X135723334Y-85891714D01*
X135675715Y-85986952D01*
X135628096Y-86034571D01*
X135532858Y-86082190D01*
X135151905Y-86082190D01*
X136675715Y-86558381D02*
X136104286Y-86558381D01*
X136390000Y-86558381D02*
X136390000Y-85558381D01*
X136294762Y-85701238D01*
X136199524Y-85796476D01*
X136104286Y-85844095D01*
D12*
X160551905Y-107386381D02*
X160551905Y-106386381D01*
X160932858Y-106386381D01*
X161028096Y-106434000D01*
X161075715Y-106481619D01*
X161123334Y-106576857D01*
X161123334Y-106719714D01*
X161075715Y-106814952D01*
X161028096Y-106862571D01*
X160932858Y-106910190D01*
X160551905Y-106910190D01*
X161456667Y-106386381D02*
X162075715Y-106386381D01*
X161742381Y-106767333D01*
X161885239Y-106767333D01*
X161980477Y-106814952D01*
X162028096Y-106862571D01*
X162075715Y-106957810D01*
X162075715Y-107195905D01*
X162028096Y-107291143D01*
X161980477Y-107338762D01*
X161885239Y-107386381D01*
X161599524Y-107386381D01*
X161504286Y-107338762D01*
X161456667Y-107291143D01*
D11*
X172156381Y-75668095D02*
X171156381Y-75668095D01*
X171156381Y-75287142D01*
X171204000Y-75191904D01*
X171251619Y-75144285D01*
X171346857Y-75096666D01*
X171489714Y-75096666D01*
X171584952Y-75144285D01*
X171632571Y-75191904D01*
X171680190Y-75287142D01*
X171680190Y-75668095D01*
X171489714Y-74239523D02*
X172156381Y-74239523D01*
X171108762Y-74477619D02*
X171823048Y-74715714D01*
X171823048Y-74096666D01*
D12*
X148590095Y-79970381D02*
X148590095Y-80779905D01*
X148637714Y-80875143D01*
X148685333Y-80922762D01*
X148780571Y-80970381D01*
X148971048Y-80970381D01*
X149066286Y-80922762D01*
X149113905Y-80875143D01*
X149161524Y-80779905D01*
X149161524Y-79970381D01*
X149590095Y-80065619D02*
X149637714Y-80018000D01*
X149732952Y-79970381D01*
X149971048Y-79970381D01*
X150066286Y-80018000D01*
X150113905Y-80065619D01*
X150161524Y-80160857D01*
X150161524Y-80256095D01*
X150113905Y-80398952D01*
X149542476Y-80970381D01*
X150161524Y-80970381D01*
X159456381Y-73128095D02*
X158456381Y-73128095D01*
X158456381Y-72747142D01*
X158504000Y-72651904D01*
X158551619Y-72604285D01*
X158646857Y-72556666D01*
X158789714Y-72556666D01*
X158884952Y-72604285D01*
X158932571Y-72651904D01*
X158980190Y-72747142D01*
X158980190Y-73128095D01*
X158456381Y-71699523D02*
X158456381Y-71890000D01*
X158504000Y-71985238D01*
X158551619Y-72032857D01*
X158694476Y-72128095D01*
X158884952Y-72175714D01*
X159265905Y-72175714D01*
X159361143Y-72128095D01*
X159408762Y-72080476D01*
X159456381Y-71985238D01*
X159456381Y-71794761D01*
X159408762Y-71699523D01*
X159361143Y-71651904D01*
X159265905Y-71604285D01*
X159027810Y-71604285D01*
X158932571Y-71651904D01*
X158884952Y-71699523D01*
X158837333Y-71794761D01*
X158837333Y-71985238D01*
X158884952Y-72080476D01*
X158932571Y-72128095D01*
X159027810Y-72175714D01*
D11*
X137612381Y-111228095D02*
X136612381Y-111228095D01*
X136612381Y-110847142D01*
X136660000Y-110751904D01*
X136707619Y-110704285D01*
X136802857Y-110656666D01*
X136945714Y-110656666D01*
X137040952Y-110704285D01*
X137088571Y-110751904D01*
X137136190Y-110847142D01*
X137136190Y-111228095D01*
X136707619Y-110275714D02*
X136660000Y-110228095D01*
X136612381Y-110132857D01*
X136612381Y-109894761D01*
X136660000Y-109799523D01*
X136707619Y-109751904D01*
X136802857Y-109704285D01*
X136898095Y-109704285D01*
X137040952Y-109751904D01*
X137612381Y-110323333D01*
X137612381Y-109704285D01*
D16*
X168148001Y-109274429D02*
X168256858Y-109310714D01*
X168438287Y-109310714D01*
X168510858Y-109274429D01*
X168547144Y-109238143D01*
X168583429Y-109165571D01*
X168583429Y-109093000D01*
X168547144Y-109020429D01*
X168510858Y-108984143D01*
X168438287Y-108947857D01*
X168293144Y-108911571D01*
X168220572Y-108875286D01*
X168184287Y-108839000D01*
X168148001Y-108766429D01*
X168148001Y-108693857D01*
X168184287Y-108621286D01*
X168220572Y-108585000D01*
X168293144Y-108548714D01*
X168474572Y-108548714D01*
X168583429Y-108585000D01*
X168837429Y-108548714D02*
X169018858Y-109310714D01*
X169164001Y-108766429D01*
X169309143Y-109310714D01*
X169490572Y-108548714D01*
X170180000Y-109310714D02*
X169744572Y-109310714D01*
X169962286Y-109310714D02*
X169962286Y-108548714D01*
X169889715Y-108657571D01*
X169817143Y-108730143D01*
X169744572Y-108766429D01*
X128474001Y-111928429D02*
X128582858Y-111964714D01*
X128764287Y-111964714D01*
X128836858Y-111928429D01*
X128873144Y-111892143D01*
X128909429Y-111819571D01*
X128909429Y-111747000D01*
X128873144Y-111674429D01*
X128836858Y-111638143D01*
X128764287Y-111601857D01*
X128619144Y-111565571D01*
X128546572Y-111529286D01*
X128510287Y-111493000D01*
X128474001Y-111420429D01*
X128474001Y-111347857D01*
X128510287Y-111275286D01*
X128546572Y-111239000D01*
X128619144Y-111202714D01*
X128800572Y-111202714D01*
X128909429Y-111239000D01*
X129163429Y-111202714D02*
X129344858Y-111964714D01*
X129490001Y-111420429D01*
X129635143Y-111964714D01*
X129816572Y-111202714D01*
X130070572Y-111275286D02*
X130106858Y-111239000D01*
X130179429Y-111202714D01*
X130360858Y-111202714D01*
X130433429Y-111239000D01*
X130469715Y-111275286D01*
X130506000Y-111347857D01*
X130506000Y-111420429D01*
X130469715Y-111529286D01*
X130034286Y-111964714D01*
X130506000Y-111964714D01*
M02*
