G04 #@! TF.FileFunction,Soldermask,Bot*
%FSLAX46Y46*%
G04 Gerber Fmt 4.6, Leading zero omitted, Abs format (unit mm)*
G04 Created by KiCad (PCBNEW 4.0.1-stable) date Sun 03 Jan 2016 01:50:34 PM EET*
%MOMM*%
G01*
G04 APERTURE LIST*
%ADD10C,0.100000*%
%ADD11R,0.359440X0.809020*%
%ADD12R,0.809020X1.261140*%
%ADD13R,1.560000X1.990000*%
%ADD14R,0.360000X0.260000*%
%ADD15R,0.260000X0.360000*%
%ADD16R,1.792000X1.792000*%
%ADD17O,1.792000X1.792000*%
%ADD18R,1.792000X1.487200*%
%ADD19O,1.792000X1.487200*%
%ADD20R,1.487200X1.792000*%
%ADD21O,1.487200X1.792000*%
%ADD22R,1.460000X0.660000*%
%ADD23R,0.660000X1.460000*%
%ADD24R,1.792000X3.417600*%
%ADD25R,1.792000X0.776000*%
G04 APERTURE END LIST*
D10*
D11*
X127640080Y-79319120D03*
X128739900Y-79319120D03*
X129839720Y-79319120D03*
X130939540Y-79319120D03*
X132039360Y-79319120D03*
X133139180Y-79319120D03*
X134239000Y-79319120D03*
X135338820Y-79319120D03*
D12*
X124084080Y-81848960D03*
X137535920Y-81848960D03*
X124084080Y-73449180D03*
X137535920Y-73449180D03*
D13*
X151320000Y-99060000D03*
X148400000Y-99060000D03*
D14*
X153374000Y-88646000D03*
X154474000Y-88646000D03*
D15*
X149860000Y-103420000D03*
X149860000Y-102320000D03*
D16*
X130810000Y-88900000D03*
D17*
X128270000Y-88900000D03*
D18*
X135890000Y-88900000D03*
D19*
X135890000Y-91440000D03*
X135890000Y-93980000D03*
X135890000Y-96520000D03*
X135890000Y-99060000D03*
X135890000Y-101600000D03*
X135890000Y-104140000D03*
D18*
X161290000Y-104140000D03*
D19*
X161290000Y-101600000D03*
X161290000Y-99060000D03*
X161290000Y-96520000D03*
X161290000Y-93980000D03*
X161290000Y-91440000D03*
X161290000Y-88900000D03*
D20*
X163830000Y-74930000D03*
D21*
X166370000Y-74930000D03*
X168910000Y-74930000D03*
X158750000Y-76840000D03*
X156210000Y-76840000D03*
X153670000Y-76840000D03*
X151130000Y-76840000D03*
X148590000Y-76840000D03*
X146050000Y-76840000D03*
X143510000Y-76840000D03*
D20*
X140970000Y-76840000D03*
X140970000Y-116840000D03*
D21*
X143510000Y-116840000D03*
X146050000Y-116840000D03*
X148590000Y-116840000D03*
X151130000Y-116840000D03*
X153670000Y-116840000D03*
X156210000Y-116840000D03*
X158750000Y-116840000D03*
D22*
X153670000Y-95430000D03*
X153670000Y-92530000D03*
D23*
X126820000Y-106934000D03*
X129720000Y-106934000D03*
X129720000Y-104394000D03*
X126820000Y-104394000D03*
X148410000Y-95250000D03*
X151310000Y-95250000D03*
X152220000Y-102870000D03*
X155120000Y-102870000D03*
D22*
X132080000Y-101780000D03*
X132080000Y-98880000D03*
D23*
X148410000Y-92710000D03*
X151310000Y-92710000D03*
D22*
X162560000Y-114734000D03*
X162560000Y-111834000D03*
X146050000Y-92530000D03*
X146050000Y-95430000D03*
D23*
X129720000Y-93980000D03*
X126820000Y-93980000D03*
X129720000Y-96520000D03*
X126820000Y-96520000D03*
X129720000Y-99060000D03*
X126820000Y-99060000D03*
X129720000Y-101600000D03*
X126820000Y-101600000D03*
D24*
X161798000Y-82550000D03*
D25*
X168402000Y-82550000D03*
X168402000Y-84836000D03*
X168402000Y-80264000D03*
D20*
X140970000Y-72390000D03*
D21*
X143510000Y-72390000D03*
X146050000Y-72390000D03*
X148590000Y-72390000D03*
X151130000Y-72390000D03*
X153670000Y-72390000D03*
X156210000Y-72390000D03*
D20*
X139954000Y-110490000D03*
D21*
X142494000Y-110490000D03*
X145034000Y-110490000D03*
X147574000Y-110490000D03*
X150114000Y-110490000D03*
X152654000Y-110490000D03*
X155194000Y-110490000D03*
M02*
