M48
;DRILL file {KiCad 4.0.1-stable} date Sun 03 Jan 2016 01:51:00 PM EET
;FORMAT={-:-/ absolute / inch / decimal}
FMAT,2
INCH,TZ
T1C0.016
T2C0.040
%
G90
G05
M72
T1
X5.09Y-3.35
X5.1Y-2.84
X5.14Y-2.84
X5.15Y-4.29
X5.21Y-4.3
X5.25Y-3.42
X5.36Y-2.92
X5.36Y-3.04
X5.38Y-4.66
X5.61Y-3.49
X5.75Y-3.99
X5.79Y-4.05
X5.83Y-4.05
X5.86Y-4.1
X5.88Y-2.94
X5.94Y-4.11
X6.05Y-3.81
X6.05Y-3.9
X6.05Y-3.97
X6.14Y-4.22
X6.32Y-4.32
X6.5803Y-4.1
X6.69Y-3.42
T2
X5.05Y-3.5
X5.15Y-3.5
X5.35Y-3.5
X5.35Y-3.6
X5.35Y-3.7
X5.35Y-3.8
X5.35Y-3.9
X5.35Y-4.
X5.35Y-4.1
X5.51Y-4.35
X5.55Y-2.85
X5.55Y-3.0252
X5.55Y-4.6
X5.61Y-4.35
X5.65Y-2.85
X5.65Y-3.0252
X5.65Y-4.6
X5.71Y-4.35
X5.75Y-2.85
X5.75Y-3.0252
X5.75Y-4.6
X5.81Y-4.35
X5.85Y-2.85
X5.85Y-3.0252
X5.85Y-4.6
X5.91Y-4.35
X5.95Y-2.85
X5.95Y-3.0252
X5.95Y-4.6
X6.01Y-4.35
X6.05Y-2.85
X6.05Y-3.0252
X6.05Y-4.6
X6.11Y-4.35
X6.15Y-2.85
X6.15Y-3.0252
X6.15Y-4.6
X6.25Y-3.0252
X6.25Y-4.6
X6.35Y-3.5
X6.35Y-3.6
X6.35Y-3.7
X6.35Y-3.8
X6.35Y-3.9
X6.35Y-4.
X6.35Y-4.1
X6.45Y-2.95
X6.55Y-2.95
X6.65Y-2.95
T0
M30
