G04 #@! TF.FileFunction,Copper,L2,Bot,Mixed*
%FSLAX46Y46*%
G04 Gerber Fmt 4.6, Leading zero omitted, Abs format (unit mm)*
G04 Created by KiCad (PCBNEW 4.0.1-stable) date Sun 03 Jan 2016 01:50:34 PM EET*
%MOMM*%
G01*
G04 APERTURE LIST*
%ADD10C,0.100000*%
%ADD11R,0.599440X1.049020*%
%ADD12R,1.049020X1.501140*%
%ADD13R,1.800000X2.230000*%
%ADD14R,0.600000X0.500000*%
%ADD15R,0.500000X0.600000*%
%ADD16R,2.032000X2.032000*%
%ADD17O,2.032000X2.032000*%
%ADD18R,2.032000X1.727200*%
%ADD19O,2.032000X1.727200*%
%ADD20R,1.727200X2.032000*%
%ADD21O,1.727200X2.032000*%
%ADD22R,1.700000X0.900000*%
%ADD23R,0.900000X1.700000*%
%ADD24R,2.032000X3.657600*%
%ADD25R,2.032000X1.016000*%
%ADD26C,0.610000*%
%ADD27C,0.310000*%
%ADD28C,0.203200*%
G04 APERTURE END LIST*
D10*
D11*
X127640080Y-79319120D03*
X128739900Y-79319120D03*
X129839720Y-79319120D03*
X130939540Y-79319120D03*
X132039360Y-79319120D03*
X133139180Y-79319120D03*
X134239000Y-79319120D03*
X135338820Y-79319120D03*
D12*
X124084080Y-81848960D03*
X137535920Y-81848960D03*
X124084080Y-73449180D03*
X137535920Y-73449180D03*
D13*
X151320000Y-99060000D03*
X148400000Y-99060000D03*
D14*
X153374000Y-88646000D03*
X154474000Y-88646000D03*
D15*
X149860000Y-103420000D03*
X149860000Y-102320000D03*
D16*
X130810000Y-88900000D03*
D17*
X128270000Y-88900000D03*
D18*
X135890000Y-88900000D03*
D19*
X135890000Y-91440000D03*
X135890000Y-93980000D03*
X135890000Y-96520000D03*
X135890000Y-99060000D03*
X135890000Y-101600000D03*
X135890000Y-104140000D03*
D18*
X161290000Y-104140000D03*
D19*
X161290000Y-101600000D03*
X161290000Y-99060000D03*
X161290000Y-96520000D03*
X161290000Y-93980000D03*
X161290000Y-91440000D03*
X161290000Y-88900000D03*
D20*
X163830000Y-74930000D03*
D21*
X166370000Y-74930000D03*
X168910000Y-74930000D03*
X158750000Y-76840000D03*
X156210000Y-76840000D03*
X153670000Y-76840000D03*
X151130000Y-76840000D03*
X148590000Y-76840000D03*
X146050000Y-76840000D03*
X143510000Y-76840000D03*
D20*
X140970000Y-76840000D03*
X140970000Y-116840000D03*
D21*
X143510000Y-116840000D03*
X146050000Y-116840000D03*
X148590000Y-116840000D03*
X151130000Y-116840000D03*
X153670000Y-116840000D03*
X156210000Y-116840000D03*
X158750000Y-116840000D03*
D22*
X153670000Y-95430000D03*
X153670000Y-92530000D03*
D23*
X126820000Y-106934000D03*
X129720000Y-106934000D03*
X129720000Y-104394000D03*
X126820000Y-104394000D03*
X148410000Y-95250000D03*
X151310000Y-95250000D03*
X152220000Y-102870000D03*
X155120000Y-102870000D03*
D22*
X132080000Y-101780000D03*
X132080000Y-98880000D03*
D23*
X148410000Y-92710000D03*
X151310000Y-92710000D03*
D22*
X162560000Y-114734000D03*
X162560000Y-111834000D03*
X146050000Y-92530000D03*
X146050000Y-95430000D03*
D23*
X129720000Y-93980000D03*
X126820000Y-93980000D03*
X129720000Y-96520000D03*
X126820000Y-96520000D03*
X129720000Y-99060000D03*
X126820000Y-99060000D03*
X129720000Y-101600000D03*
X126820000Y-101600000D03*
D24*
X161798000Y-82550000D03*
D25*
X168402000Y-82550000D03*
X168402000Y-84836000D03*
X168402000Y-80264000D03*
D20*
X140970000Y-72390000D03*
D21*
X143510000Y-72390000D03*
X146050000Y-72390000D03*
X148590000Y-72390000D03*
X151130000Y-72390000D03*
X153670000Y-72390000D03*
X156210000Y-72390000D03*
D20*
X139954000Y-110490000D03*
D21*
X142494000Y-110490000D03*
X145034000Y-110490000D03*
X147574000Y-110490000D03*
X150114000Y-110490000D03*
X152654000Y-110490000D03*
X155194000Y-110490000D03*
D26*
X136144000Y-77216000D03*
X136144000Y-74168000D03*
X153670000Y-100838000D03*
X136652000Y-118364000D03*
X169926000Y-86868000D03*
X133350000Y-86868000D03*
X129286000Y-85090000D03*
X146050000Y-101346000D03*
X142494000Y-88646000D03*
X132334000Y-109220000D03*
X130810000Y-108966000D03*
X153670000Y-96774000D03*
X153670000Y-99060000D03*
X167140010Y-104140000D03*
X129540000Y-72136000D03*
X130556000Y-72136000D03*
X150876000Y-104394000D03*
X149352000Y-74676000D03*
X155956000Y-107188000D03*
X160528000Y-109728000D03*
X148844000Y-104140000D03*
X148082000Y-102870000D03*
X147066000Y-102870000D03*
D27*
X136144000Y-77216000D02*
X136144000Y-78463068D01*
X136144000Y-78463068D02*
X137535920Y-79854988D01*
X137535920Y-73449180D02*
X136862820Y-73449180D01*
X136862820Y-73449180D02*
X136144000Y-74168000D01*
X139641399Y-71001999D02*
X139641399Y-72702601D01*
X167797825Y-70908999D02*
X170434000Y-73545174D01*
X139734399Y-70908999D02*
X167797825Y-70908999D01*
X139641399Y-71001999D02*
X139734399Y-70908999D01*
X169672000Y-80264000D02*
X170434000Y-79502000D01*
X170434000Y-73545174D02*
X170434000Y-79502000D01*
X138894820Y-73449180D02*
X137535920Y-73449180D01*
X139641399Y-72702601D02*
X138894820Y-73449180D01*
X137535920Y-73449180D02*
X137535920Y-73675240D01*
X137535920Y-81848960D02*
X137535920Y-79854988D01*
X137535920Y-79854988D02*
X136010541Y-78329609D01*
X136010541Y-78329609D02*
X133294181Y-78329609D01*
X133294181Y-78329609D02*
X133139180Y-78484610D01*
X133139180Y-78484610D02*
X133139180Y-79319120D01*
X137535920Y-73449180D02*
X136701410Y-73449180D01*
X127001771Y-71365999D02*
X124918590Y-73449180D01*
X134618229Y-71365999D02*
X127001771Y-71365999D01*
X124918590Y-73449180D02*
X124084080Y-73449180D01*
X136701410Y-73449180D02*
X134618229Y-71365999D01*
X131318000Y-106426000D02*
X135636000Y-110744000D01*
X129720000Y-104394000D02*
X130556000Y-104394000D01*
X131318000Y-105156000D02*
X130556000Y-104394000D01*
X131318000Y-105156000D02*
X131318000Y-106426000D01*
X135636000Y-110744000D02*
X135636000Y-117348000D01*
X151892000Y-99060000D02*
X153670000Y-100838000D01*
X151320000Y-99060000D02*
X151320000Y-100860000D01*
X151320000Y-100860000D02*
X149860000Y-102320000D01*
X136652000Y-118364000D02*
X135636000Y-117348000D01*
X169926000Y-86868000D02*
X166370000Y-86868000D01*
X163830000Y-84328000D02*
X163830000Y-74930000D01*
X166370000Y-86868000D02*
X163830000Y-84328000D01*
X162560000Y-114734000D02*
X162560000Y-115824000D01*
X161544000Y-116840000D02*
X158750000Y-116840000D01*
X162560000Y-115824000D02*
X161544000Y-116840000D01*
X158750000Y-76840000D02*
X158750000Y-85598000D01*
X155702000Y-88646000D02*
X154474000Y-88646000D01*
X158750000Y-85598000D02*
X155702000Y-88646000D01*
X124084080Y-73449180D02*
X124084080Y-81848960D01*
X169672000Y-80264000D02*
X168402000Y-80264000D01*
X169926000Y-86868000D02*
X170434000Y-86360000D01*
X170434000Y-86360000D02*
X170434000Y-81026000D01*
X170434000Y-81026000D02*
X169672000Y-80264000D01*
X151320000Y-99060000D02*
X151892000Y-99060000D01*
X146050000Y-92530000D02*
X144890000Y-92530000D01*
X144890000Y-92530000D02*
X141723999Y-89363999D01*
X141723999Y-89363999D02*
X141723999Y-88276399D01*
X141723999Y-88276399D02*
X142124399Y-87875999D01*
X142124399Y-87875999D02*
X142786401Y-87875999D01*
X142786401Y-87875999D02*
X153670000Y-76992400D01*
X153670000Y-76992400D02*
X153670000Y-76840000D01*
X136398000Y-110236000D02*
X136398000Y-116840000D01*
X136398000Y-116840000D02*
X138430000Y-118872000D01*
X138430000Y-118872000D02*
X152908000Y-118872000D01*
X152908000Y-118872000D02*
X153670000Y-118110000D01*
X153670000Y-116840000D02*
X153670000Y-118110000D01*
X136398000Y-110236000D02*
X132842000Y-106680000D01*
X168910000Y-72898000D02*
X168402000Y-72390000D01*
X168910000Y-74930000D02*
X168910000Y-72898000D01*
X154432000Y-74422000D02*
X153670000Y-75184000D01*
X158496000Y-74422000D02*
X154432000Y-74422000D01*
X160528000Y-72390000D02*
X158496000Y-74422000D01*
X153670000Y-75184000D02*
X153670000Y-76840000D01*
X168402000Y-72390000D02*
X160528000Y-72390000D01*
X148410000Y-92710000D02*
X146230000Y-92710000D01*
X146230000Y-92710000D02*
X146050000Y-92530000D01*
X130939540Y-79319120D02*
X130939540Y-80642460D01*
X132588000Y-93980000D02*
X133350000Y-93218000D01*
X133350000Y-93218000D02*
X133350000Y-86868000D01*
X132588000Y-93980000D02*
X129720000Y-93980000D01*
X129286000Y-82296000D02*
X129286000Y-85090000D01*
X130939540Y-80642460D02*
X129286000Y-82296000D01*
X148336000Y-101960000D02*
X148442000Y-101960000D01*
X149394000Y-103420000D02*
X149860000Y-103420000D01*
X149098000Y-103124000D02*
X149394000Y-103420000D01*
X149098000Y-102616000D02*
X149098000Y-103124000D01*
X148442000Y-101960000D02*
X149098000Y-102616000D01*
X165608000Y-81788000D02*
X165608000Y-78232000D01*
X129720000Y-93980000D02*
X129720000Y-96520000D01*
X129720000Y-99060000D02*
X129720000Y-96520000D01*
X129720000Y-101600000D02*
X129720000Y-99060000D01*
X129720000Y-101600000D02*
X131900000Y-101600000D01*
X131900000Y-101600000D02*
X132080000Y-101780000D01*
X168402000Y-82550000D02*
X166370000Y-82550000D01*
X168910000Y-76962000D02*
X168910000Y-74930000D01*
X168402000Y-77470000D02*
X168910000Y-76962000D01*
X166370000Y-77470000D02*
X168402000Y-77470000D01*
X165608000Y-78232000D02*
X166370000Y-77470000D01*
X166370000Y-82550000D02*
X165608000Y-81788000D01*
X132080000Y-101780000D02*
X132080000Y-105918000D01*
X132842000Y-106680000D02*
X138176000Y-106680000D01*
X138176000Y-106680000D02*
X139700000Y-105156000D01*
X139700000Y-105156000D02*
X142240000Y-105156000D01*
X142240000Y-105156000D02*
X145436000Y-101960000D01*
X145436000Y-101960000D02*
X146304000Y-101960000D01*
X132080000Y-105918000D02*
X132842000Y-106680000D01*
X146304000Y-101960000D02*
X146304000Y-101600000D01*
X146304000Y-101600000D02*
X146050000Y-101346000D01*
X146304000Y-101960000D02*
X148336000Y-101960000D01*
X148336000Y-101960000D02*
X148400000Y-101960000D01*
X148400000Y-99060000D02*
X148400000Y-101960000D01*
X152220000Y-102870000D02*
X151384000Y-102870000D01*
X150834000Y-103420000D02*
X149860000Y-103420000D01*
X151384000Y-102870000D02*
X150834000Y-103420000D01*
X148410000Y-92710000D02*
X148410000Y-95250000D01*
X148410000Y-95250000D02*
X148400000Y-95260000D01*
X148400000Y-95260000D02*
X148400000Y-99060000D01*
D28*
X142494000Y-88646000D02*
X149296000Y-88646000D01*
X149296000Y-88646000D02*
X151310000Y-90660000D01*
X151310000Y-92710000D02*
X151310000Y-90660000D01*
X151310000Y-90660000D02*
X153324000Y-88646000D01*
X153324000Y-88646000D02*
X153374000Y-88646000D01*
X132334000Y-109220000D02*
X132334000Y-108458000D01*
X130810000Y-106934000D02*
X129720000Y-106934000D01*
X132334000Y-108458000D02*
X130810000Y-106934000D01*
X126820000Y-106934000D02*
X126820000Y-107987200D01*
X126820000Y-107987200D02*
X127798800Y-108966000D01*
X127798800Y-108966000D02*
X130810000Y-108966000D01*
X126820000Y-106934000D02*
X126820000Y-104394000D01*
X132080000Y-98880000D02*
X132080000Y-95504000D01*
X133604000Y-93980000D02*
X135890000Y-93980000D01*
X132080000Y-95504000D02*
X133604000Y-93980000D01*
D27*
X166370000Y-74930000D02*
X166370000Y-76454000D01*
X166624000Y-84836000D02*
X164846000Y-83058000D01*
X164846000Y-83058000D02*
X164846000Y-77978000D01*
X168402000Y-84836000D02*
X166624000Y-84836000D01*
X166370000Y-76454000D02*
X164846000Y-77978000D01*
X167386000Y-84836000D02*
X168402000Y-84836000D01*
D28*
X153670000Y-95430000D02*
X153670000Y-96774000D01*
X153670000Y-95430000D02*
X151490000Y-95430000D01*
X151490000Y-95430000D02*
X151310000Y-95250000D01*
X155120000Y-100510000D02*
X155120000Y-102870000D01*
X153670000Y-99060000D02*
X155120000Y-100510000D01*
X161290000Y-104140000D02*
X161290000Y-108712000D01*
X162560000Y-109982000D02*
X162560000Y-111834000D01*
X161290000Y-108712000D02*
X162560000Y-109982000D01*
X167140010Y-104140000D02*
X167140010Y-100565229D01*
X167140010Y-100565229D02*
X161723191Y-95148410D01*
X161723191Y-95148410D02*
X157341610Y-95148410D01*
X157341610Y-95148410D02*
X154723200Y-92530000D01*
X154723200Y-92530000D02*
X153670000Y-92530000D01*
X125252379Y-101122379D02*
X125730000Y-101600000D01*
X125730000Y-101600000D02*
X126820000Y-101600000D01*
X127640080Y-79319120D02*
X127640080Y-85850884D01*
X127640080Y-85850884D02*
X125252379Y-88238585D01*
X125252379Y-88238585D02*
X125252379Y-101122379D01*
X143256000Y-94996000D02*
X143690000Y-95430000D01*
X143690000Y-95430000D02*
X146050000Y-95430000D01*
X143256000Y-93036000D02*
X143256000Y-94996000D01*
X135338820Y-79319120D02*
X135338820Y-85118820D01*
X135338820Y-85118820D02*
X143256000Y-93036000D01*
X128739900Y-79319120D02*
X128739900Y-80046830D01*
X128739900Y-80046830D02*
X128117590Y-80669140D01*
X128117590Y-80669140D02*
X128117590Y-85948124D01*
X128117590Y-85948124D02*
X125658789Y-88406925D01*
X125658789Y-88406925D02*
X125658789Y-98551989D01*
X125658789Y-98551989D02*
X126166800Y-99060000D01*
X126166800Y-99060000D02*
X126820000Y-99060000D01*
X128739900Y-79319120D02*
X128739900Y-72936100D01*
X128739900Y-72936100D02*
X129540000Y-72136000D01*
X129839720Y-79319120D02*
X129839720Y-80940974D01*
X129839720Y-80940974D02*
X128524000Y-82256694D01*
X128524000Y-82256694D02*
X128524000Y-86116464D01*
X126166800Y-96520000D02*
X126820000Y-96520000D01*
X128524000Y-86116464D02*
X126065199Y-88575265D01*
X126065199Y-88575265D02*
X126065199Y-96418399D01*
X126065199Y-96418399D02*
X126166800Y-96520000D01*
X126820000Y-96120000D02*
X126820000Y-96520000D01*
X129839720Y-79319120D02*
X129839720Y-72852280D01*
X129839720Y-72852280D02*
X130556000Y-72136000D01*
X148590000Y-116840000D02*
X148590000Y-114300000D01*
X150876000Y-108966000D02*
X150876000Y-104394000D01*
X151384000Y-109474000D02*
X150876000Y-108966000D01*
X151384000Y-111506000D02*
X151384000Y-109474000D01*
X148590000Y-114300000D02*
X151384000Y-111506000D01*
X132039360Y-77002640D02*
X132039360Y-79319120D01*
X133350000Y-75692000D02*
X132039360Y-77002640D01*
X138430000Y-75692000D02*
X133350000Y-75692000D01*
X139446000Y-74676000D02*
X138430000Y-75692000D01*
X149352000Y-74676000D02*
X139446000Y-74676000D01*
X151130000Y-114300000D02*
X152146000Y-113284000D01*
X151130000Y-116840000D02*
X151130000Y-114300000D01*
X155956000Y-107188000D02*
X157226000Y-108458000D01*
X157226000Y-108458000D02*
X157226000Y-112268000D01*
X157226000Y-112268000D02*
X156210000Y-113284000D01*
X156210000Y-113284000D02*
X152146000Y-113284000D01*
X126820000Y-93980000D02*
X126820000Y-88395214D01*
X129629969Y-85806601D02*
X134239000Y-81197570D01*
X126820000Y-88395214D02*
X129408613Y-85806601D01*
X129408613Y-85806601D02*
X129629969Y-85806601D01*
X134239000Y-81197570D02*
X134239000Y-79319120D01*
X156210000Y-114046000D02*
X160528000Y-109728000D01*
X156210000Y-116840000D02*
X156210000Y-114046000D01*
X146050000Y-114300000D02*
X148844000Y-111506000D01*
X148844000Y-111506000D02*
X148844000Y-104140000D01*
X146050000Y-114300000D02*
X146050000Y-116840000D01*
X148082000Y-103886000D02*
X146304000Y-105664000D01*
X143510000Y-116840000D02*
X143510000Y-114046000D01*
X148082000Y-103886000D02*
X148082000Y-102870000D01*
X146304000Y-111252000D02*
X146304000Y-105664000D01*
X143510000Y-114046000D02*
X146304000Y-111252000D01*
X140970000Y-116840000D02*
X140970000Y-114808000D01*
X145542000Y-102870000D02*
X147066000Y-102870000D01*
X143764000Y-104648000D02*
X145542000Y-102870000D01*
X143764000Y-113030000D02*
X143764000Y-104648000D01*
X142748000Y-114046000D02*
X143764000Y-113030000D01*
X141732000Y-114046000D02*
X142748000Y-114046000D01*
X140970000Y-114808000D02*
X141732000Y-114046000D01*
D27*
G36*
X171982000Y-118642000D02*
X154279426Y-118642000D01*
X154425733Y-118423035D01*
X154449123Y-118305448D01*
X154749469Y-118104763D01*
X154940000Y-117819613D01*
X155130531Y-118104763D01*
X155625795Y-118435688D01*
X156210000Y-118551894D01*
X156794205Y-118435688D01*
X157289469Y-118104763D01*
X157481273Y-117817708D01*
X157808471Y-118197454D01*
X158341295Y-118466032D01*
X158413909Y-118481545D01*
X158651000Y-118349644D01*
X158651000Y-116939000D01*
X158849000Y-116939000D01*
X158849000Y-118349644D01*
X159086091Y-118481545D01*
X159158705Y-118466032D01*
X159691529Y-118197454D01*
X160081014Y-117745417D01*
X160267864Y-117178740D01*
X160112577Y-116939000D01*
X158849000Y-116939000D01*
X158651000Y-116939000D01*
X158631000Y-116939000D01*
X158631000Y-116741000D01*
X158651000Y-116741000D01*
X158651000Y-115330356D01*
X158849000Y-115330356D01*
X158849000Y-116741000D01*
X160112577Y-116741000D01*
X160267864Y-116501260D01*
X160081014Y-115934583D01*
X159691529Y-115482546D01*
X159158705Y-115213968D01*
X159086091Y-115198455D01*
X158849000Y-115330356D01*
X158651000Y-115330356D01*
X158413909Y-115198455D01*
X158341295Y-115213968D01*
X157808471Y-115482546D01*
X157481273Y-115862292D01*
X157289469Y-115575237D01*
X156974600Y-115364848D01*
X156974600Y-114998750D01*
X161047000Y-114998750D01*
X161047000Y-115315879D01*
X161147936Y-115559559D01*
X161334441Y-115746064D01*
X161578121Y-115847000D01*
X162295250Y-115847000D01*
X162461000Y-115681250D01*
X162461000Y-114833000D01*
X162659000Y-114833000D01*
X162659000Y-115681250D01*
X162824750Y-115847000D01*
X163541879Y-115847000D01*
X163785559Y-115746064D01*
X163972064Y-115559559D01*
X164073000Y-115315879D01*
X164073000Y-114998750D01*
X163907250Y-114833000D01*
X162659000Y-114833000D01*
X162461000Y-114833000D01*
X161212750Y-114833000D01*
X161047000Y-114998750D01*
X156974600Y-114998750D01*
X156974600Y-114362708D01*
X157185187Y-114152121D01*
X161047000Y-114152121D01*
X161047000Y-114469250D01*
X161212750Y-114635000D01*
X162461000Y-114635000D01*
X162461000Y-113786750D01*
X162659000Y-113786750D01*
X162659000Y-114635000D01*
X163907250Y-114635000D01*
X164073000Y-114469250D01*
X164073000Y-114152121D01*
X163972064Y-113908441D01*
X163785559Y-113721936D01*
X163541879Y-113621000D01*
X162824750Y-113621000D01*
X162659000Y-113786750D01*
X162461000Y-113786750D01*
X162295250Y-113621000D01*
X161578121Y-113621000D01*
X161334441Y-113721936D01*
X161147936Y-113908441D01*
X161047000Y-114152121D01*
X157185187Y-114152121D01*
X160641209Y-110696099D01*
X160719702Y-110696167D01*
X161075611Y-110549109D01*
X161348152Y-110277044D01*
X161473020Y-109976328D01*
X161795400Y-110298708D01*
X161795400Y-110708012D01*
X161710000Y-110708012D01*
X161464307Y-110754242D01*
X161238653Y-110899447D01*
X161087270Y-111121003D01*
X161034012Y-111384000D01*
X161034012Y-112284000D01*
X161080242Y-112529693D01*
X161225447Y-112755347D01*
X161447003Y-112906730D01*
X161710000Y-112959988D01*
X163410000Y-112959988D01*
X163655693Y-112913758D01*
X163881347Y-112768553D01*
X164032730Y-112546997D01*
X164085988Y-112284000D01*
X164085988Y-111384000D01*
X164039758Y-111138307D01*
X163894553Y-110912653D01*
X163672997Y-110761270D01*
X163410000Y-110708012D01*
X163324600Y-110708012D01*
X163324600Y-109982000D01*
X163266398Y-109689400D01*
X163100654Y-109441346D01*
X162054600Y-108395292D01*
X162054600Y-105679588D01*
X162306000Y-105679588D01*
X162551693Y-105633358D01*
X162777347Y-105488153D01*
X162928730Y-105266597D01*
X162981988Y-105003600D01*
X162981988Y-103276400D01*
X162935758Y-103030707D01*
X162790553Y-102805053D01*
X162571060Y-102655079D01*
X162885688Y-102184205D01*
X163001894Y-101600000D01*
X162885688Y-101015795D01*
X162554763Y-100520531D01*
X162269613Y-100330000D01*
X162554763Y-100139469D01*
X162885688Y-99644205D01*
X163001894Y-99060000D01*
X162885688Y-98475795D01*
X162554763Y-97980531D01*
X162269613Y-97790000D01*
X162554763Y-97599469D01*
X162770327Y-97276854D01*
X166375410Y-100881937D01*
X166375410Y-103535501D01*
X166319858Y-103590956D01*
X166172179Y-103946608D01*
X166171843Y-104331702D01*
X166318901Y-104687611D01*
X166590966Y-104960152D01*
X166946618Y-105107831D01*
X167331712Y-105108167D01*
X167687621Y-104961109D01*
X167960162Y-104689044D01*
X168107841Y-104333392D01*
X168108177Y-103948298D01*
X167961119Y-103592389D01*
X167904610Y-103535781D01*
X167904610Y-100565229D01*
X167846408Y-100272629D01*
X167680664Y-100024575D01*
X162619168Y-94963079D01*
X162885688Y-94564205D01*
X163001894Y-93980000D01*
X162885688Y-93395795D01*
X162554763Y-92900531D01*
X162269613Y-92710000D01*
X162554763Y-92519469D01*
X162885688Y-92024205D01*
X163001894Y-91440000D01*
X162885688Y-90855795D01*
X162554763Y-90360531D01*
X162269613Y-90170000D01*
X162554763Y-89979469D01*
X162885688Y-89484205D01*
X163001894Y-88900000D01*
X162885688Y-88315795D01*
X162554763Y-87820531D01*
X162059499Y-87489606D01*
X161475294Y-87373400D01*
X161104706Y-87373400D01*
X160520501Y-87489606D01*
X160025237Y-87820531D01*
X159694312Y-88315795D01*
X159578106Y-88900000D01*
X159694312Y-89484205D01*
X160025237Y-89979469D01*
X160310387Y-90170000D01*
X160025237Y-90360531D01*
X159694312Y-90855795D01*
X159578106Y-91440000D01*
X159694312Y-92024205D01*
X160025237Y-92519469D01*
X160310387Y-92710000D01*
X160025237Y-92900531D01*
X159694312Y-93395795D01*
X159578106Y-93980000D01*
X159658429Y-94383810D01*
X157658318Y-94383810D01*
X155263854Y-91989346D01*
X155211354Y-91954267D01*
X155166718Y-91924442D01*
X155149758Y-91834307D01*
X155004553Y-91608653D01*
X154782997Y-91457270D01*
X154520000Y-91404012D01*
X152820000Y-91404012D01*
X152574307Y-91450242D01*
X152369139Y-91582264D01*
X152244553Y-91388653D01*
X152074600Y-91272529D01*
X152074600Y-90976708D01*
X153479320Y-89571988D01*
X153674000Y-89571988D01*
X153919693Y-89525758D01*
X153936210Y-89515130D01*
X154042121Y-89559000D01*
X154209250Y-89559000D01*
X154375000Y-89393250D01*
X154375000Y-88745000D01*
X154573000Y-88745000D01*
X154573000Y-89393250D01*
X154738750Y-89559000D01*
X154905879Y-89559000D01*
X155149559Y-89458064D01*
X155336064Y-89271559D01*
X155437000Y-89027879D01*
X155437000Y-88910750D01*
X155271250Y-88745000D01*
X154573000Y-88745000D01*
X154375000Y-88745000D01*
X154355000Y-88745000D01*
X154355000Y-88547000D01*
X154375000Y-88547000D01*
X154375000Y-87898750D01*
X154573000Y-87898750D01*
X154573000Y-88547000D01*
X155271250Y-88547000D01*
X155437000Y-88381250D01*
X155437000Y-88264121D01*
X155336064Y-88020441D01*
X155149559Y-87833936D01*
X154905879Y-87733000D01*
X154738750Y-87733000D01*
X154573000Y-87898750D01*
X154375000Y-87898750D01*
X154209250Y-87733000D01*
X154042121Y-87733000D01*
X153939980Y-87775308D01*
X153936997Y-87773270D01*
X153674000Y-87720012D01*
X153074000Y-87720012D01*
X152828307Y-87766242D01*
X152602653Y-87911447D01*
X152451270Y-88133003D01*
X152398012Y-88396000D01*
X152398012Y-88490680D01*
X151310000Y-89578692D01*
X149836654Y-88105346D01*
X149824097Y-88096956D01*
X149588600Y-87939602D01*
X149296000Y-87881400D01*
X143937826Y-87881400D01*
X151098026Y-80721200D01*
X160106012Y-80721200D01*
X160106012Y-84378800D01*
X160152242Y-84624493D01*
X160297447Y-84850147D01*
X160519003Y-85001530D01*
X160782000Y-85054788D01*
X162814000Y-85054788D01*
X163059693Y-85008558D01*
X163285347Y-84863353D01*
X163436730Y-84641797D01*
X163489988Y-84378800D01*
X163489988Y-80721200D01*
X163443758Y-80475507D01*
X163298553Y-80249853D01*
X163076997Y-80098470D01*
X162814000Y-80045212D01*
X160782000Y-80045212D01*
X160536307Y-80091442D01*
X160310653Y-80236647D01*
X160159270Y-80458203D01*
X160106012Y-80721200D01*
X151098026Y-80721200D01*
X153334140Y-78485087D01*
X153670000Y-78551894D01*
X154254205Y-78435688D01*
X154749469Y-78104763D01*
X154940000Y-77819613D01*
X155130531Y-78104763D01*
X155625795Y-78435688D01*
X156210000Y-78551894D01*
X156794205Y-78435688D01*
X157289469Y-78104763D01*
X157481273Y-77817708D01*
X157808471Y-78197454D01*
X158341295Y-78466032D01*
X158413909Y-78481545D01*
X158651000Y-78349644D01*
X158651000Y-76939000D01*
X158849000Y-76939000D01*
X158849000Y-78349644D01*
X159086091Y-78481545D01*
X159158705Y-78466032D01*
X159691529Y-78197454D01*
X160081014Y-77745417D01*
X160267864Y-77178740D01*
X160112577Y-76939000D01*
X158849000Y-76939000D01*
X158651000Y-76939000D01*
X158631000Y-76939000D01*
X158631000Y-76741000D01*
X158651000Y-76741000D01*
X158651000Y-76721000D01*
X158849000Y-76721000D01*
X158849000Y-76741000D01*
X160112577Y-76741000D01*
X160267864Y-76501260D01*
X160081014Y-75934583D01*
X159691529Y-75482546D01*
X159158705Y-75213968D01*
X159086091Y-75198455D01*
X158849002Y-75330355D01*
X158849002Y-75194750D01*
X162303400Y-75194750D01*
X162303400Y-76077879D01*
X162404336Y-76321559D01*
X162590841Y-76508064D01*
X162834521Y-76609000D01*
X163565250Y-76609000D01*
X163731000Y-76443250D01*
X163731000Y-75029000D01*
X162469150Y-75029000D01*
X162303400Y-75194750D01*
X158849002Y-75194750D01*
X158849002Y-75161000D01*
X158834078Y-75161000D01*
X159074413Y-75000413D01*
X160292705Y-73782121D01*
X162303400Y-73782121D01*
X162303400Y-74665250D01*
X162469150Y-74831000D01*
X163731000Y-74831000D01*
X163731000Y-73416750D01*
X163565250Y-73251000D01*
X162834521Y-73251000D01*
X162590841Y-73351936D01*
X162404336Y-73538441D01*
X162303400Y-73782121D01*
X160292705Y-73782121D01*
X160866826Y-73208000D01*
X168063174Y-73208000D01*
X168092000Y-73236827D01*
X168092000Y-73490529D01*
X167830531Y-73665237D01*
X167640000Y-73950387D01*
X167449469Y-73665237D01*
X166954205Y-73334312D01*
X166370000Y-73218106D01*
X165785795Y-73334312D01*
X165304358Y-73655998D01*
X165255664Y-73538441D01*
X165069159Y-73351936D01*
X164825479Y-73251000D01*
X164094750Y-73251000D01*
X163929000Y-73416750D01*
X163929000Y-74831000D01*
X163949000Y-74831000D01*
X163949000Y-75029000D01*
X163929000Y-75029000D01*
X163929000Y-76443250D01*
X164094750Y-76609000D01*
X164825479Y-76609000D01*
X165069159Y-76508064D01*
X165255664Y-76321559D01*
X165304358Y-76204002D01*
X165399560Y-76267614D01*
X164267587Y-77399587D01*
X164090267Y-77664965D01*
X164028000Y-77978000D01*
X164028000Y-83058000D01*
X164090267Y-83371035D01*
X164267587Y-83636413D01*
X166045587Y-85414414D01*
X166307912Y-85589693D01*
X166310965Y-85591733D01*
X166624000Y-85654000D01*
X166797623Y-85654000D01*
X166901447Y-85815347D01*
X167123003Y-85966730D01*
X167386000Y-86019988D01*
X169418000Y-86019988D01*
X169663693Y-85973758D01*
X169889347Y-85828553D01*
X170040730Y-85606997D01*
X170093988Y-85344000D01*
X170093988Y-84328000D01*
X170047758Y-84082307D01*
X169902553Y-83856653D01*
X169680997Y-83705270D01*
X169627837Y-83694505D01*
X169663693Y-83687758D01*
X169889347Y-83542553D01*
X170040730Y-83320997D01*
X170093988Y-83058000D01*
X170093988Y-82042000D01*
X170047758Y-81796307D01*
X169902553Y-81570653D01*
X169680997Y-81419270D01*
X169618438Y-81406602D01*
X169793559Y-81334064D01*
X169980064Y-81147559D01*
X170081000Y-80903879D01*
X170081000Y-80528750D01*
X169915250Y-80363000D01*
X168501000Y-80363000D01*
X168501000Y-80383000D01*
X168303000Y-80383000D01*
X168303000Y-80363000D01*
X166888750Y-80363000D01*
X166723000Y-80528750D01*
X166723000Y-80903879D01*
X166823936Y-81147559D01*
X167010441Y-81334064D01*
X167180789Y-81404625D01*
X167140307Y-81412242D01*
X166914653Y-81557447D01*
X166795386Y-81732000D01*
X166708827Y-81732000D01*
X166426000Y-81449174D01*
X166426000Y-79624121D01*
X166723000Y-79624121D01*
X166723000Y-79999250D01*
X166888750Y-80165000D01*
X168303000Y-80165000D01*
X168303000Y-79258750D01*
X168501000Y-79258750D01*
X168501000Y-80165000D01*
X169915250Y-80165000D01*
X170081000Y-79999250D01*
X170081000Y-79624121D01*
X169980064Y-79380441D01*
X169793559Y-79193936D01*
X169549879Y-79093000D01*
X168666750Y-79093000D01*
X168501000Y-79258750D01*
X168303000Y-79258750D01*
X168137250Y-79093000D01*
X167254121Y-79093000D01*
X167010441Y-79193936D01*
X166823936Y-79380441D01*
X166723000Y-79624121D01*
X166426000Y-79624121D01*
X166426000Y-78570826D01*
X166708827Y-78288000D01*
X168402000Y-78288000D01*
X168715035Y-78225733D01*
X168980413Y-78048413D01*
X169488413Y-77540414D01*
X169665733Y-77275035D01*
X169688615Y-77160000D01*
X169728000Y-76962000D01*
X169728000Y-76369471D01*
X169989469Y-76194763D01*
X170320394Y-75699499D01*
X170436600Y-75115294D01*
X170436600Y-74744706D01*
X170320394Y-74160501D01*
X169989469Y-73665237D01*
X169728000Y-73490529D01*
X169728000Y-72898000D01*
X169665733Y-72584965D01*
X169648838Y-72559680D01*
X169488413Y-72319586D01*
X168980413Y-71811587D01*
X168715035Y-71634267D01*
X168402000Y-71572000D01*
X160528000Y-71572000D01*
X160214965Y-71634267D01*
X159949587Y-71811587D01*
X158157174Y-73604000D01*
X157323388Y-73604000D01*
X157620394Y-73159499D01*
X157736600Y-72575294D01*
X157736600Y-72204706D01*
X157620394Y-71620501D01*
X157289469Y-71125237D01*
X156794205Y-70794312D01*
X156210000Y-70678106D01*
X155625795Y-70794312D01*
X155130531Y-71125237D01*
X154940000Y-71410387D01*
X154749469Y-71125237D01*
X154254205Y-70794312D01*
X153670000Y-70678106D01*
X153085795Y-70794312D01*
X152590531Y-71125237D01*
X152400000Y-71410387D01*
X152209469Y-71125237D01*
X151714205Y-70794312D01*
X151130000Y-70678106D01*
X150545795Y-70794312D01*
X150050531Y-71125237D01*
X149860000Y-71410387D01*
X149669469Y-71125237D01*
X149174205Y-70794312D01*
X148590000Y-70678106D01*
X148005795Y-70794312D01*
X147510531Y-71125237D01*
X147320000Y-71410387D01*
X147129469Y-71125237D01*
X146634205Y-70794312D01*
X146050000Y-70678106D01*
X145465795Y-70794312D01*
X144970531Y-71125237D01*
X144780000Y-71410387D01*
X144589469Y-71125237D01*
X144094205Y-70794312D01*
X143510000Y-70678106D01*
X142925795Y-70794312D01*
X142452106Y-71110821D01*
X142318153Y-70902653D01*
X142096597Y-70751270D01*
X141833600Y-70698012D01*
X140106400Y-70698012D01*
X139860707Y-70744242D01*
X139635053Y-70889447D01*
X139483670Y-71111003D01*
X139430412Y-71374000D01*
X139430412Y-73406000D01*
X139476642Y-73651693D01*
X139621847Y-73877347D01*
X139671685Y-73911400D01*
X139446000Y-73911400D01*
X139153400Y-73969602D01*
X138985202Y-74081988D01*
X138905346Y-74135346D01*
X138723430Y-74317262D01*
X138723430Y-73713930D01*
X138557680Y-73548180D01*
X137634920Y-73548180D01*
X137634920Y-74697000D01*
X137800670Y-74862750D01*
X138177942Y-74862750D01*
X138113292Y-74927400D01*
X133350000Y-74927400D01*
X133057400Y-74985602D01*
X132863302Y-75115294D01*
X132809346Y-75151346D01*
X131498706Y-76461986D01*
X131332962Y-76710040D01*
X131274760Y-77002640D01*
X131274760Y-78125811D01*
X131239260Y-78118622D01*
X130639820Y-78118622D01*
X130604320Y-78125302D01*
X130604320Y-73713930D01*
X136348410Y-73713930D01*
X136348410Y-74331629D01*
X136449346Y-74575309D01*
X136635851Y-74761814D01*
X136879531Y-74862750D01*
X137271170Y-74862750D01*
X137436920Y-74697000D01*
X137436920Y-73548180D01*
X136514160Y-73548180D01*
X136348410Y-73713930D01*
X130604320Y-73713930D01*
X130604320Y-73168988D01*
X130669209Y-73104099D01*
X130747702Y-73104167D01*
X131103611Y-72957109D01*
X131376152Y-72685044D01*
X131425279Y-72566731D01*
X136348410Y-72566731D01*
X136348410Y-73184430D01*
X136514160Y-73350180D01*
X137436920Y-73350180D01*
X137436920Y-72201360D01*
X137634920Y-72201360D01*
X137634920Y-73350180D01*
X138557680Y-73350180D01*
X138723430Y-73184430D01*
X138723430Y-72566731D01*
X138622494Y-72323051D01*
X138435989Y-72136546D01*
X138192309Y-72035610D01*
X137800670Y-72035610D01*
X137634920Y-72201360D01*
X137436920Y-72201360D01*
X137271170Y-72035610D01*
X136879531Y-72035610D01*
X136635851Y-72136546D01*
X136449346Y-72323051D01*
X136348410Y-72566731D01*
X131425279Y-72566731D01*
X131523831Y-72329392D01*
X131524167Y-71944298D01*
X131377109Y-71588389D01*
X131105044Y-71315848D01*
X130749392Y-71168169D01*
X130364298Y-71167833D01*
X130047661Y-71298664D01*
X129733392Y-71168169D01*
X129348298Y-71167833D01*
X128992389Y-71314891D01*
X128719848Y-71586956D01*
X128572169Y-71942608D01*
X128572099Y-72022593D01*
X128199246Y-72395446D01*
X128033502Y-72643500D01*
X127975300Y-72936100D01*
X127975300Y-78125811D01*
X127939800Y-78118622D01*
X127340360Y-78118622D01*
X127094667Y-78164852D01*
X126869013Y-78310057D01*
X126717630Y-78531613D01*
X126664372Y-78794610D01*
X126664372Y-79843630D01*
X126710602Y-80089323D01*
X126855807Y-80314977D01*
X126875480Y-80328419D01*
X126875480Y-85534176D01*
X124711725Y-87697931D01*
X124545981Y-87945985D01*
X124487779Y-88238585D01*
X124487779Y-101122379D01*
X124545981Y-101414979D01*
X124574684Y-101457936D01*
X124711725Y-101663033D01*
X125189346Y-102140654D01*
X125437400Y-102306398D01*
X125694012Y-102357442D01*
X125694012Y-102450000D01*
X125740242Y-102695693D01*
X125885447Y-102921347D01*
X125995940Y-102996844D01*
X125898653Y-103059447D01*
X125747270Y-103281003D01*
X125694012Y-103544000D01*
X125694012Y-105244000D01*
X125740242Y-105489693D01*
X125853444Y-105665613D01*
X125747270Y-105821003D01*
X125694012Y-106084000D01*
X125694012Y-107784000D01*
X125740242Y-108029693D01*
X125885447Y-108255347D01*
X126107003Y-108406730D01*
X126212718Y-108428138D01*
X126279346Y-108527854D01*
X127258146Y-109506654D01*
X127506200Y-109672398D01*
X127798800Y-109730600D01*
X130205501Y-109730600D01*
X130260956Y-109786152D01*
X130616608Y-109933831D01*
X131001702Y-109934167D01*
X131357611Y-109787109D01*
X131473250Y-109671672D01*
X131512891Y-109767611D01*
X131784956Y-110040152D01*
X132140608Y-110187831D01*
X132525702Y-110188167D01*
X132881611Y-110041109D01*
X133154152Y-109769044D01*
X133301831Y-109413392D01*
X133302167Y-109028298D01*
X133155109Y-108672389D01*
X133098600Y-108615781D01*
X133098600Y-108458000D01*
X133040398Y-108165400D01*
X132874654Y-107917346D01*
X131350654Y-106393346D01*
X131311061Y-106366891D01*
X131102600Y-106227602D01*
X130845988Y-106176558D01*
X130845988Y-106084000D01*
X130799758Y-105838307D01*
X130687605Y-105664018D01*
X130732064Y-105619559D01*
X130833000Y-105375879D01*
X130833000Y-104658750D01*
X130667250Y-104493000D01*
X129819000Y-104493000D01*
X129819000Y-104513000D01*
X129621000Y-104513000D01*
X129621000Y-104493000D01*
X128772750Y-104493000D01*
X128607000Y-104658750D01*
X128607000Y-105375879D01*
X128707936Y-105619559D01*
X128753665Y-105665288D01*
X128647270Y-105821003D01*
X128594012Y-106084000D01*
X128594012Y-107784000D01*
X128640242Y-108029693D01*
X128750733Y-108201400D01*
X128115508Y-108201400D01*
X127904244Y-107990136D01*
X127945988Y-107784000D01*
X127945988Y-106084000D01*
X127899758Y-105838307D01*
X127786556Y-105662387D01*
X127892730Y-105506997D01*
X127945988Y-105244000D01*
X127945988Y-103544000D01*
X127899758Y-103298307D01*
X127754553Y-103072653D01*
X127644060Y-102997156D01*
X127741347Y-102934553D01*
X127892730Y-102712997D01*
X127945988Y-102450000D01*
X127945988Y-100750000D01*
X127899758Y-100504307D01*
X127786556Y-100328387D01*
X127892730Y-100172997D01*
X127945988Y-99910000D01*
X127945988Y-98210000D01*
X127899758Y-97964307D01*
X127786556Y-97788387D01*
X127892730Y-97632997D01*
X127945988Y-97370000D01*
X127945988Y-95670000D01*
X127899758Y-95424307D01*
X127786556Y-95248387D01*
X127892730Y-95092997D01*
X127945988Y-94830000D01*
X127945988Y-93130000D01*
X127899758Y-92884307D01*
X127754553Y-92658653D01*
X127584600Y-92542529D01*
X127584600Y-90455440D01*
X127627475Y-90484088D01*
X128270000Y-90611894D01*
X128912525Y-90484088D01*
X129233633Y-90269530D01*
X129309447Y-90387347D01*
X129531003Y-90538730D01*
X129794000Y-90591988D01*
X131826000Y-90591988D01*
X132071693Y-90545758D01*
X132297347Y-90400553D01*
X132448730Y-90178997D01*
X132501988Y-89916000D01*
X132501988Y-87884000D01*
X132455758Y-87638307D01*
X132310553Y-87412653D01*
X132088997Y-87261270D01*
X131826000Y-87208012D01*
X129794000Y-87208012D01*
X129548307Y-87254242D01*
X129322653Y-87399447D01*
X129233287Y-87530238D01*
X128953339Y-87343183D01*
X129748997Y-86547525D01*
X129922569Y-86512999D01*
X130170623Y-86347255D01*
X134574220Y-81943658D01*
X134574220Y-85118820D01*
X134632422Y-85411420D01*
X134700965Y-85514002D01*
X134798166Y-85659474D01*
X136499104Y-87360412D01*
X134874000Y-87360412D01*
X134628307Y-87406642D01*
X134402653Y-87551847D01*
X134251270Y-87773403D01*
X134198012Y-88036400D01*
X134198012Y-89763600D01*
X134244242Y-90009293D01*
X134389447Y-90234947D01*
X134608940Y-90384921D01*
X134294312Y-90855795D01*
X134178106Y-91440000D01*
X134294312Y-92024205D01*
X134625237Y-92519469D01*
X134910387Y-92710000D01*
X134625237Y-92900531D01*
X134414848Y-93215400D01*
X134168000Y-93215400D01*
X134168000Y-87419192D01*
X134170152Y-87417044D01*
X134317831Y-87061392D01*
X134318167Y-86676298D01*
X134171109Y-86320389D01*
X133899044Y-86047848D01*
X133543392Y-85900169D01*
X133158298Y-85899833D01*
X132802389Y-86046891D01*
X132529848Y-86318956D01*
X132382169Y-86674608D01*
X132381833Y-87059702D01*
X132528891Y-87415611D01*
X132532000Y-87418725D01*
X132532000Y-92879173D01*
X132249174Y-93162000D01*
X130845988Y-93162000D01*
X130845988Y-93130000D01*
X130799758Y-92884307D01*
X130654553Y-92658653D01*
X130432997Y-92507270D01*
X130170000Y-92454012D01*
X129270000Y-92454012D01*
X129024307Y-92500242D01*
X128798653Y-92645447D01*
X128647270Y-92867003D01*
X128594012Y-93130000D01*
X128594012Y-94830000D01*
X128640242Y-95075693D01*
X128753444Y-95251613D01*
X128647270Y-95407003D01*
X128594012Y-95670000D01*
X128594012Y-97370000D01*
X128640242Y-97615693D01*
X128753444Y-97791613D01*
X128647270Y-97947003D01*
X128594012Y-98210000D01*
X128594012Y-99910000D01*
X128640242Y-100155693D01*
X128753444Y-100331613D01*
X128647270Y-100487003D01*
X128594012Y-100750000D01*
X128594012Y-102450000D01*
X128640242Y-102695693D01*
X128785447Y-102921347D01*
X128886193Y-102990184D01*
X128707936Y-103168441D01*
X128607000Y-103412121D01*
X128607000Y-104129250D01*
X128772750Y-104295000D01*
X129621000Y-104295000D01*
X129621000Y-104275000D01*
X129819000Y-104275000D01*
X129819000Y-104295000D01*
X130667250Y-104295000D01*
X130833000Y-104129250D01*
X130833000Y-103412121D01*
X130732064Y-103168441D01*
X130554233Y-102990610D01*
X130641347Y-102934553D01*
X130783108Y-102727080D01*
X130967003Y-102852730D01*
X131230000Y-102905988D01*
X131262000Y-102905988D01*
X131262000Y-105918000D01*
X131324267Y-106231035D01*
X131501587Y-106496413D01*
X132263587Y-107258414D01*
X132263590Y-107258416D01*
X135580000Y-110574827D01*
X135580000Y-116840000D01*
X135642267Y-117153035D01*
X135819587Y-117418413D01*
X137043174Y-118642000D01*
X123928000Y-118642000D01*
X123928000Y-83153860D01*
X123985080Y-83096780D01*
X123985080Y-81947960D01*
X124183080Y-81947960D01*
X124183080Y-83096780D01*
X124348830Y-83262530D01*
X124740469Y-83262530D01*
X124984149Y-83161594D01*
X125170654Y-82975089D01*
X125271590Y-82731409D01*
X125271590Y-82113710D01*
X125105840Y-81947960D01*
X124183080Y-81947960D01*
X123985080Y-81947960D01*
X123965080Y-81947960D01*
X123965080Y-81749960D01*
X123985080Y-81749960D01*
X123985080Y-80601140D01*
X124183080Y-80601140D01*
X124183080Y-81749960D01*
X125105840Y-81749960D01*
X125271590Y-81584210D01*
X125271590Y-80966511D01*
X125170654Y-80722831D01*
X124984149Y-80536326D01*
X124740469Y-80435390D01*
X124348830Y-80435390D01*
X124183080Y-80601140D01*
X123985080Y-80601140D01*
X123928000Y-80544060D01*
X123928000Y-74754080D01*
X123985080Y-74697000D01*
X123985080Y-73548180D01*
X124183080Y-73548180D01*
X124183080Y-74697000D01*
X124348830Y-74862750D01*
X124740469Y-74862750D01*
X124984149Y-74761814D01*
X125170654Y-74575309D01*
X125271590Y-74331629D01*
X125271590Y-73713930D01*
X125105840Y-73548180D01*
X124183080Y-73548180D01*
X123985080Y-73548180D01*
X123965080Y-73548180D01*
X123965080Y-73350180D01*
X123985080Y-73350180D01*
X123985080Y-72201360D01*
X124183080Y-72201360D01*
X124183080Y-73350180D01*
X125105840Y-73350180D01*
X125271590Y-73184430D01*
X125271590Y-72566731D01*
X125170654Y-72323051D01*
X124984149Y-72136546D01*
X124740469Y-72035610D01*
X124348830Y-72035610D01*
X124183080Y-72201360D01*
X123985080Y-72201360D01*
X123928000Y-72144280D01*
X123928000Y-70588000D01*
X171982000Y-70588000D01*
X171982000Y-118642000D01*
X171982000Y-118642000D01*
G37*
X171982000Y-118642000D02*
X154279426Y-118642000D01*
X154425733Y-118423035D01*
X154449123Y-118305448D01*
X154749469Y-118104763D01*
X154940000Y-117819613D01*
X155130531Y-118104763D01*
X155625795Y-118435688D01*
X156210000Y-118551894D01*
X156794205Y-118435688D01*
X157289469Y-118104763D01*
X157481273Y-117817708D01*
X157808471Y-118197454D01*
X158341295Y-118466032D01*
X158413909Y-118481545D01*
X158651000Y-118349644D01*
X158651000Y-116939000D01*
X158849000Y-116939000D01*
X158849000Y-118349644D01*
X159086091Y-118481545D01*
X159158705Y-118466032D01*
X159691529Y-118197454D01*
X160081014Y-117745417D01*
X160267864Y-117178740D01*
X160112577Y-116939000D01*
X158849000Y-116939000D01*
X158651000Y-116939000D01*
X158631000Y-116939000D01*
X158631000Y-116741000D01*
X158651000Y-116741000D01*
X158651000Y-115330356D01*
X158849000Y-115330356D01*
X158849000Y-116741000D01*
X160112577Y-116741000D01*
X160267864Y-116501260D01*
X160081014Y-115934583D01*
X159691529Y-115482546D01*
X159158705Y-115213968D01*
X159086091Y-115198455D01*
X158849000Y-115330356D01*
X158651000Y-115330356D01*
X158413909Y-115198455D01*
X158341295Y-115213968D01*
X157808471Y-115482546D01*
X157481273Y-115862292D01*
X157289469Y-115575237D01*
X156974600Y-115364848D01*
X156974600Y-114998750D01*
X161047000Y-114998750D01*
X161047000Y-115315879D01*
X161147936Y-115559559D01*
X161334441Y-115746064D01*
X161578121Y-115847000D01*
X162295250Y-115847000D01*
X162461000Y-115681250D01*
X162461000Y-114833000D01*
X162659000Y-114833000D01*
X162659000Y-115681250D01*
X162824750Y-115847000D01*
X163541879Y-115847000D01*
X163785559Y-115746064D01*
X163972064Y-115559559D01*
X164073000Y-115315879D01*
X164073000Y-114998750D01*
X163907250Y-114833000D01*
X162659000Y-114833000D01*
X162461000Y-114833000D01*
X161212750Y-114833000D01*
X161047000Y-114998750D01*
X156974600Y-114998750D01*
X156974600Y-114362708D01*
X157185187Y-114152121D01*
X161047000Y-114152121D01*
X161047000Y-114469250D01*
X161212750Y-114635000D01*
X162461000Y-114635000D01*
X162461000Y-113786750D01*
X162659000Y-113786750D01*
X162659000Y-114635000D01*
X163907250Y-114635000D01*
X164073000Y-114469250D01*
X164073000Y-114152121D01*
X163972064Y-113908441D01*
X163785559Y-113721936D01*
X163541879Y-113621000D01*
X162824750Y-113621000D01*
X162659000Y-113786750D01*
X162461000Y-113786750D01*
X162295250Y-113621000D01*
X161578121Y-113621000D01*
X161334441Y-113721936D01*
X161147936Y-113908441D01*
X161047000Y-114152121D01*
X157185187Y-114152121D01*
X160641209Y-110696099D01*
X160719702Y-110696167D01*
X161075611Y-110549109D01*
X161348152Y-110277044D01*
X161473020Y-109976328D01*
X161795400Y-110298708D01*
X161795400Y-110708012D01*
X161710000Y-110708012D01*
X161464307Y-110754242D01*
X161238653Y-110899447D01*
X161087270Y-111121003D01*
X161034012Y-111384000D01*
X161034012Y-112284000D01*
X161080242Y-112529693D01*
X161225447Y-112755347D01*
X161447003Y-112906730D01*
X161710000Y-112959988D01*
X163410000Y-112959988D01*
X163655693Y-112913758D01*
X163881347Y-112768553D01*
X164032730Y-112546997D01*
X164085988Y-112284000D01*
X164085988Y-111384000D01*
X164039758Y-111138307D01*
X163894553Y-110912653D01*
X163672997Y-110761270D01*
X163410000Y-110708012D01*
X163324600Y-110708012D01*
X163324600Y-109982000D01*
X163266398Y-109689400D01*
X163100654Y-109441346D01*
X162054600Y-108395292D01*
X162054600Y-105679588D01*
X162306000Y-105679588D01*
X162551693Y-105633358D01*
X162777347Y-105488153D01*
X162928730Y-105266597D01*
X162981988Y-105003600D01*
X162981988Y-103276400D01*
X162935758Y-103030707D01*
X162790553Y-102805053D01*
X162571060Y-102655079D01*
X162885688Y-102184205D01*
X163001894Y-101600000D01*
X162885688Y-101015795D01*
X162554763Y-100520531D01*
X162269613Y-100330000D01*
X162554763Y-100139469D01*
X162885688Y-99644205D01*
X163001894Y-99060000D01*
X162885688Y-98475795D01*
X162554763Y-97980531D01*
X162269613Y-97790000D01*
X162554763Y-97599469D01*
X162770327Y-97276854D01*
X166375410Y-100881937D01*
X166375410Y-103535501D01*
X166319858Y-103590956D01*
X166172179Y-103946608D01*
X166171843Y-104331702D01*
X166318901Y-104687611D01*
X166590966Y-104960152D01*
X166946618Y-105107831D01*
X167331712Y-105108167D01*
X167687621Y-104961109D01*
X167960162Y-104689044D01*
X168107841Y-104333392D01*
X168108177Y-103948298D01*
X167961119Y-103592389D01*
X167904610Y-103535781D01*
X167904610Y-100565229D01*
X167846408Y-100272629D01*
X167680664Y-100024575D01*
X162619168Y-94963079D01*
X162885688Y-94564205D01*
X163001894Y-93980000D01*
X162885688Y-93395795D01*
X162554763Y-92900531D01*
X162269613Y-92710000D01*
X162554763Y-92519469D01*
X162885688Y-92024205D01*
X163001894Y-91440000D01*
X162885688Y-90855795D01*
X162554763Y-90360531D01*
X162269613Y-90170000D01*
X162554763Y-89979469D01*
X162885688Y-89484205D01*
X163001894Y-88900000D01*
X162885688Y-88315795D01*
X162554763Y-87820531D01*
X162059499Y-87489606D01*
X161475294Y-87373400D01*
X161104706Y-87373400D01*
X160520501Y-87489606D01*
X160025237Y-87820531D01*
X159694312Y-88315795D01*
X159578106Y-88900000D01*
X159694312Y-89484205D01*
X160025237Y-89979469D01*
X160310387Y-90170000D01*
X160025237Y-90360531D01*
X159694312Y-90855795D01*
X159578106Y-91440000D01*
X159694312Y-92024205D01*
X160025237Y-92519469D01*
X160310387Y-92710000D01*
X160025237Y-92900531D01*
X159694312Y-93395795D01*
X159578106Y-93980000D01*
X159658429Y-94383810D01*
X157658318Y-94383810D01*
X155263854Y-91989346D01*
X155211354Y-91954267D01*
X155166718Y-91924442D01*
X155149758Y-91834307D01*
X155004553Y-91608653D01*
X154782997Y-91457270D01*
X154520000Y-91404012D01*
X152820000Y-91404012D01*
X152574307Y-91450242D01*
X152369139Y-91582264D01*
X152244553Y-91388653D01*
X152074600Y-91272529D01*
X152074600Y-90976708D01*
X153479320Y-89571988D01*
X153674000Y-89571988D01*
X153919693Y-89525758D01*
X153936210Y-89515130D01*
X154042121Y-89559000D01*
X154209250Y-89559000D01*
X154375000Y-89393250D01*
X154375000Y-88745000D01*
X154573000Y-88745000D01*
X154573000Y-89393250D01*
X154738750Y-89559000D01*
X154905879Y-89559000D01*
X155149559Y-89458064D01*
X155336064Y-89271559D01*
X155437000Y-89027879D01*
X155437000Y-88910750D01*
X155271250Y-88745000D01*
X154573000Y-88745000D01*
X154375000Y-88745000D01*
X154355000Y-88745000D01*
X154355000Y-88547000D01*
X154375000Y-88547000D01*
X154375000Y-87898750D01*
X154573000Y-87898750D01*
X154573000Y-88547000D01*
X155271250Y-88547000D01*
X155437000Y-88381250D01*
X155437000Y-88264121D01*
X155336064Y-88020441D01*
X155149559Y-87833936D01*
X154905879Y-87733000D01*
X154738750Y-87733000D01*
X154573000Y-87898750D01*
X154375000Y-87898750D01*
X154209250Y-87733000D01*
X154042121Y-87733000D01*
X153939980Y-87775308D01*
X153936997Y-87773270D01*
X153674000Y-87720012D01*
X153074000Y-87720012D01*
X152828307Y-87766242D01*
X152602653Y-87911447D01*
X152451270Y-88133003D01*
X152398012Y-88396000D01*
X152398012Y-88490680D01*
X151310000Y-89578692D01*
X149836654Y-88105346D01*
X149824097Y-88096956D01*
X149588600Y-87939602D01*
X149296000Y-87881400D01*
X143937826Y-87881400D01*
X151098026Y-80721200D01*
X160106012Y-80721200D01*
X160106012Y-84378800D01*
X160152242Y-84624493D01*
X160297447Y-84850147D01*
X160519003Y-85001530D01*
X160782000Y-85054788D01*
X162814000Y-85054788D01*
X163059693Y-85008558D01*
X163285347Y-84863353D01*
X163436730Y-84641797D01*
X163489988Y-84378800D01*
X163489988Y-80721200D01*
X163443758Y-80475507D01*
X163298553Y-80249853D01*
X163076997Y-80098470D01*
X162814000Y-80045212D01*
X160782000Y-80045212D01*
X160536307Y-80091442D01*
X160310653Y-80236647D01*
X160159270Y-80458203D01*
X160106012Y-80721200D01*
X151098026Y-80721200D01*
X153334140Y-78485087D01*
X153670000Y-78551894D01*
X154254205Y-78435688D01*
X154749469Y-78104763D01*
X154940000Y-77819613D01*
X155130531Y-78104763D01*
X155625795Y-78435688D01*
X156210000Y-78551894D01*
X156794205Y-78435688D01*
X157289469Y-78104763D01*
X157481273Y-77817708D01*
X157808471Y-78197454D01*
X158341295Y-78466032D01*
X158413909Y-78481545D01*
X158651000Y-78349644D01*
X158651000Y-76939000D01*
X158849000Y-76939000D01*
X158849000Y-78349644D01*
X159086091Y-78481545D01*
X159158705Y-78466032D01*
X159691529Y-78197454D01*
X160081014Y-77745417D01*
X160267864Y-77178740D01*
X160112577Y-76939000D01*
X158849000Y-76939000D01*
X158651000Y-76939000D01*
X158631000Y-76939000D01*
X158631000Y-76741000D01*
X158651000Y-76741000D01*
X158651000Y-76721000D01*
X158849000Y-76721000D01*
X158849000Y-76741000D01*
X160112577Y-76741000D01*
X160267864Y-76501260D01*
X160081014Y-75934583D01*
X159691529Y-75482546D01*
X159158705Y-75213968D01*
X159086091Y-75198455D01*
X158849002Y-75330355D01*
X158849002Y-75194750D01*
X162303400Y-75194750D01*
X162303400Y-76077879D01*
X162404336Y-76321559D01*
X162590841Y-76508064D01*
X162834521Y-76609000D01*
X163565250Y-76609000D01*
X163731000Y-76443250D01*
X163731000Y-75029000D01*
X162469150Y-75029000D01*
X162303400Y-75194750D01*
X158849002Y-75194750D01*
X158849002Y-75161000D01*
X158834078Y-75161000D01*
X159074413Y-75000413D01*
X160292705Y-73782121D01*
X162303400Y-73782121D01*
X162303400Y-74665250D01*
X162469150Y-74831000D01*
X163731000Y-74831000D01*
X163731000Y-73416750D01*
X163565250Y-73251000D01*
X162834521Y-73251000D01*
X162590841Y-73351936D01*
X162404336Y-73538441D01*
X162303400Y-73782121D01*
X160292705Y-73782121D01*
X160866826Y-73208000D01*
X168063174Y-73208000D01*
X168092000Y-73236827D01*
X168092000Y-73490529D01*
X167830531Y-73665237D01*
X167640000Y-73950387D01*
X167449469Y-73665237D01*
X166954205Y-73334312D01*
X166370000Y-73218106D01*
X165785795Y-73334312D01*
X165304358Y-73655998D01*
X165255664Y-73538441D01*
X165069159Y-73351936D01*
X164825479Y-73251000D01*
X164094750Y-73251000D01*
X163929000Y-73416750D01*
X163929000Y-74831000D01*
X163949000Y-74831000D01*
X163949000Y-75029000D01*
X163929000Y-75029000D01*
X163929000Y-76443250D01*
X164094750Y-76609000D01*
X164825479Y-76609000D01*
X165069159Y-76508064D01*
X165255664Y-76321559D01*
X165304358Y-76204002D01*
X165399560Y-76267614D01*
X164267587Y-77399587D01*
X164090267Y-77664965D01*
X164028000Y-77978000D01*
X164028000Y-83058000D01*
X164090267Y-83371035D01*
X164267587Y-83636413D01*
X166045587Y-85414414D01*
X166307912Y-85589693D01*
X166310965Y-85591733D01*
X166624000Y-85654000D01*
X166797623Y-85654000D01*
X166901447Y-85815347D01*
X167123003Y-85966730D01*
X167386000Y-86019988D01*
X169418000Y-86019988D01*
X169663693Y-85973758D01*
X169889347Y-85828553D01*
X170040730Y-85606997D01*
X170093988Y-85344000D01*
X170093988Y-84328000D01*
X170047758Y-84082307D01*
X169902553Y-83856653D01*
X169680997Y-83705270D01*
X169627837Y-83694505D01*
X169663693Y-83687758D01*
X169889347Y-83542553D01*
X170040730Y-83320997D01*
X170093988Y-83058000D01*
X170093988Y-82042000D01*
X170047758Y-81796307D01*
X169902553Y-81570653D01*
X169680997Y-81419270D01*
X169618438Y-81406602D01*
X169793559Y-81334064D01*
X169980064Y-81147559D01*
X170081000Y-80903879D01*
X170081000Y-80528750D01*
X169915250Y-80363000D01*
X168501000Y-80363000D01*
X168501000Y-80383000D01*
X168303000Y-80383000D01*
X168303000Y-80363000D01*
X166888750Y-80363000D01*
X166723000Y-80528750D01*
X166723000Y-80903879D01*
X166823936Y-81147559D01*
X167010441Y-81334064D01*
X167180789Y-81404625D01*
X167140307Y-81412242D01*
X166914653Y-81557447D01*
X166795386Y-81732000D01*
X166708827Y-81732000D01*
X166426000Y-81449174D01*
X166426000Y-79624121D01*
X166723000Y-79624121D01*
X166723000Y-79999250D01*
X166888750Y-80165000D01*
X168303000Y-80165000D01*
X168303000Y-79258750D01*
X168501000Y-79258750D01*
X168501000Y-80165000D01*
X169915250Y-80165000D01*
X170081000Y-79999250D01*
X170081000Y-79624121D01*
X169980064Y-79380441D01*
X169793559Y-79193936D01*
X169549879Y-79093000D01*
X168666750Y-79093000D01*
X168501000Y-79258750D01*
X168303000Y-79258750D01*
X168137250Y-79093000D01*
X167254121Y-79093000D01*
X167010441Y-79193936D01*
X166823936Y-79380441D01*
X166723000Y-79624121D01*
X166426000Y-79624121D01*
X166426000Y-78570826D01*
X166708827Y-78288000D01*
X168402000Y-78288000D01*
X168715035Y-78225733D01*
X168980413Y-78048413D01*
X169488413Y-77540414D01*
X169665733Y-77275035D01*
X169688615Y-77160000D01*
X169728000Y-76962000D01*
X169728000Y-76369471D01*
X169989469Y-76194763D01*
X170320394Y-75699499D01*
X170436600Y-75115294D01*
X170436600Y-74744706D01*
X170320394Y-74160501D01*
X169989469Y-73665237D01*
X169728000Y-73490529D01*
X169728000Y-72898000D01*
X169665733Y-72584965D01*
X169648838Y-72559680D01*
X169488413Y-72319586D01*
X168980413Y-71811587D01*
X168715035Y-71634267D01*
X168402000Y-71572000D01*
X160528000Y-71572000D01*
X160214965Y-71634267D01*
X159949587Y-71811587D01*
X158157174Y-73604000D01*
X157323388Y-73604000D01*
X157620394Y-73159499D01*
X157736600Y-72575294D01*
X157736600Y-72204706D01*
X157620394Y-71620501D01*
X157289469Y-71125237D01*
X156794205Y-70794312D01*
X156210000Y-70678106D01*
X155625795Y-70794312D01*
X155130531Y-71125237D01*
X154940000Y-71410387D01*
X154749469Y-71125237D01*
X154254205Y-70794312D01*
X153670000Y-70678106D01*
X153085795Y-70794312D01*
X152590531Y-71125237D01*
X152400000Y-71410387D01*
X152209469Y-71125237D01*
X151714205Y-70794312D01*
X151130000Y-70678106D01*
X150545795Y-70794312D01*
X150050531Y-71125237D01*
X149860000Y-71410387D01*
X149669469Y-71125237D01*
X149174205Y-70794312D01*
X148590000Y-70678106D01*
X148005795Y-70794312D01*
X147510531Y-71125237D01*
X147320000Y-71410387D01*
X147129469Y-71125237D01*
X146634205Y-70794312D01*
X146050000Y-70678106D01*
X145465795Y-70794312D01*
X144970531Y-71125237D01*
X144780000Y-71410387D01*
X144589469Y-71125237D01*
X144094205Y-70794312D01*
X143510000Y-70678106D01*
X142925795Y-70794312D01*
X142452106Y-71110821D01*
X142318153Y-70902653D01*
X142096597Y-70751270D01*
X141833600Y-70698012D01*
X140106400Y-70698012D01*
X139860707Y-70744242D01*
X139635053Y-70889447D01*
X139483670Y-71111003D01*
X139430412Y-71374000D01*
X139430412Y-73406000D01*
X139476642Y-73651693D01*
X139621847Y-73877347D01*
X139671685Y-73911400D01*
X139446000Y-73911400D01*
X139153400Y-73969602D01*
X138985202Y-74081988D01*
X138905346Y-74135346D01*
X138723430Y-74317262D01*
X138723430Y-73713930D01*
X138557680Y-73548180D01*
X137634920Y-73548180D01*
X137634920Y-74697000D01*
X137800670Y-74862750D01*
X138177942Y-74862750D01*
X138113292Y-74927400D01*
X133350000Y-74927400D01*
X133057400Y-74985602D01*
X132863302Y-75115294D01*
X132809346Y-75151346D01*
X131498706Y-76461986D01*
X131332962Y-76710040D01*
X131274760Y-77002640D01*
X131274760Y-78125811D01*
X131239260Y-78118622D01*
X130639820Y-78118622D01*
X130604320Y-78125302D01*
X130604320Y-73713930D01*
X136348410Y-73713930D01*
X136348410Y-74331629D01*
X136449346Y-74575309D01*
X136635851Y-74761814D01*
X136879531Y-74862750D01*
X137271170Y-74862750D01*
X137436920Y-74697000D01*
X137436920Y-73548180D01*
X136514160Y-73548180D01*
X136348410Y-73713930D01*
X130604320Y-73713930D01*
X130604320Y-73168988D01*
X130669209Y-73104099D01*
X130747702Y-73104167D01*
X131103611Y-72957109D01*
X131376152Y-72685044D01*
X131425279Y-72566731D01*
X136348410Y-72566731D01*
X136348410Y-73184430D01*
X136514160Y-73350180D01*
X137436920Y-73350180D01*
X137436920Y-72201360D01*
X137634920Y-72201360D01*
X137634920Y-73350180D01*
X138557680Y-73350180D01*
X138723430Y-73184430D01*
X138723430Y-72566731D01*
X138622494Y-72323051D01*
X138435989Y-72136546D01*
X138192309Y-72035610D01*
X137800670Y-72035610D01*
X137634920Y-72201360D01*
X137436920Y-72201360D01*
X137271170Y-72035610D01*
X136879531Y-72035610D01*
X136635851Y-72136546D01*
X136449346Y-72323051D01*
X136348410Y-72566731D01*
X131425279Y-72566731D01*
X131523831Y-72329392D01*
X131524167Y-71944298D01*
X131377109Y-71588389D01*
X131105044Y-71315848D01*
X130749392Y-71168169D01*
X130364298Y-71167833D01*
X130047661Y-71298664D01*
X129733392Y-71168169D01*
X129348298Y-71167833D01*
X128992389Y-71314891D01*
X128719848Y-71586956D01*
X128572169Y-71942608D01*
X128572099Y-72022593D01*
X128199246Y-72395446D01*
X128033502Y-72643500D01*
X127975300Y-72936100D01*
X127975300Y-78125811D01*
X127939800Y-78118622D01*
X127340360Y-78118622D01*
X127094667Y-78164852D01*
X126869013Y-78310057D01*
X126717630Y-78531613D01*
X126664372Y-78794610D01*
X126664372Y-79843630D01*
X126710602Y-80089323D01*
X126855807Y-80314977D01*
X126875480Y-80328419D01*
X126875480Y-85534176D01*
X124711725Y-87697931D01*
X124545981Y-87945985D01*
X124487779Y-88238585D01*
X124487779Y-101122379D01*
X124545981Y-101414979D01*
X124574684Y-101457936D01*
X124711725Y-101663033D01*
X125189346Y-102140654D01*
X125437400Y-102306398D01*
X125694012Y-102357442D01*
X125694012Y-102450000D01*
X125740242Y-102695693D01*
X125885447Y-102921347D01*
X125995940Y-102996844D01*
X125898653Y-103059447D01*
X125747270Y-103281003D01*
X125694012Y-103544000D01*
X125694012Y-105244000D01*
X125740242Y-105489693D01*
X125853444Y-105665613D01*
X125747270Y-105821003D01*
X125694012Y-106084000D01*
X125694012Y-107784000D01*
X125740242Y-108029693D01*
X125885447Y-108255347D01*
X126107003Y-108406730D01*
X126212718Y-108428138D01*
X126279346Y-108527854D01*
X127258146Y-109506654D01*
X127506200Y-109672398D01*
X127798800Y-109730600D01*
X130205501Y-109730600D01*
X130260956Y-109786152D01*
X130616608Y-109933831D01*
X131001702Y-109934167D01*
X131357611Y-109787109D01*
X131473250Y-109671672D01*
X131512891Y-109767611D01*
X131784956Y-110040152D01*
X132140608Y-110187831D01*
X132525702Y-110188167D01*
X132881611Y-110041109D01*
X133154152Y-109769044D01*
X133301831Y-109413392D01*
X133302167Y-109028298D01*
X133155109Y-108672389D01*
X133098600Y-108615781D01*
X133098600Y-108458000D01*
X133040398Y-108165400D01*
X132874654Y-107917346D01*
X131350654Y-106393346D01*
X131311061Y-106366891D01*
X131102600Y-106227602D01*
X130845988Y-106176558D01*
X130845988Y-106084000D01*
X130799758Y-105838307D01*
X130687605Y-105664018D01*
X130732064Y-105619559D01*
X130833000Y-105375879D01*
X130833000Y-104658750D01*
X130667250Y-104493000D01*
X129819000Y-104493000D01*
X129819000Y-104513000D01*
X129621000Y-104513000D01*
X129621000Y-104493000D01*
X128772750Y-104493000D01*
X128607000Y-104658750D01*
X128607000Y-105375879D01*
X128707936Y-105619559D01*
X128753665Y-105665288D01*
X128647270Y-105821003D01*
X128594012Y-106084000D01*
X128594012Y-107784000D01*
X128640242Y-108029693D01*
X128750733Y-108201400D01*
X128115508Y-108201400D01*
X127904244Y-107990136D01*
X127945988Y-107784000D01*
X127945988Y-106084000D01*
X127899758Y-105838307D01*
X127786556Y-105662387D01*
X127892730Y-105506997D01*
X127945988Y-105244000D01*
X127945988Y-103544000D01*
X127899758Y-103298307D01*
X127754553Y-103072653D01*
X127644060Y-102997156D01*
X127741347Y-102934553D01*
X127892730Y-102712997D01*
X127945988Y-102450000D01*
X127945988Y-100750000D01*
X127899758Y-100504307D01*
X127786556Y-100328387D01*
X127892730Y-100172997D01*
X127945988Y-99910000D01*
X127945988Y-98210000D01*
X127899758Y-97964307D01*
X127786556Y-97788387D01*
X127892730Y-97632997D01*
X127945988Y-97370000D01*
X127945988Y-95670000D01*
X127899758Y-95424307D01*
X127786556Y-95248387D01*
X127892730Y-95092997D01*
X127945988Y-94830000D01*
X127945988Y-93130000D01*
X127899758Y-92884307D01*
X127754553Y-92658653D01*
X127584600Y-92542529D01*
X127584600Y-90455440D01*
X127627475Y-90484088D01*
X128270000Y-90611894D01*
X128912525Y-90484088D01*
X129233633Y-90269530D01*
X129309447Y-90387347D01*
X129531003Y-90538730D01*
X129794000Y-90591988D01*
X131826000Y-90591988D01*
X132071693Y-90545758D01*
X132297347Y-90400553D01*
X132448730Y-90178997D01*
X132501988Y-89916000D01*
X132501988Y-87884000D01*
X132455758Y-87638307D01*
X132310553Y-87412653D01*
X132088997Y-87261270D01*
X131826000Y-87208012D01*
X129794000Y-87208012D01*
X129548307Y-87254242D01*
X129322653Y-87399447D01*
X129233287Y-87530238D01*
X128953339Y-87343183D01*
X129748997Y-86547525D01*
X129922569Y-86512999D01*
X130170623Y-86347255D01*
X134574220Y-81943658D01*
X134574220Y-85118820D01*
X134632422Y-85411420D01*
X134700965Y-85514002D01*
X134798166Y-85659474D01*
X136499104Y-87360412D01*
X134874000Y-87360412D01*
X134628307Y-87406642D01*
X134402653Y-87551847D01*
X134251270Y-87773403D01*
X134198012Y-88036400D01*
X134198012Y-89763600D01*
X134244242Y-90009293D01*
X134389447Y-90234947D01*
X134608940Y-90384921D01*
X134294312Y-90855795D01*
X134178106Y-91440000D01*
X134294312Y-92024205D01*
X134625237Y-92519469D01*
X134910387Y-92710000D01*
X134625237Y-92900531D01*
X134414848Y-93215400D01*
X134168000Y-93215400D01*
X134168000Y-87419192D01*
X134170152Y-87417044D01*
X134317831Y-87061392D01*
X134318167Y-86676298D01*
X134171109Y-86320389D01*
X133899044Y-86047848D01*
X133543392Y-85900169D01*
X133158298Y-85899833D01*
X132802389Y-86046891D01*
X132529848Y-86318956D01*
X132382169Y-86674608D01*
X132381833Y-87059702D01*
X132528891Y-87415611D01*
X132532000Y-87418725D01*
X132532000Y-92879173D01*
X132249174Y-93162000D01*
X130845988Y-93162000D01*
X130845988Y-93130000D01*
X130799758Y-92884307D01*
X130654553Y-92658653D01*
X130432997Y-92507270D01*
X130170000Y-92454012D01*
X129270000Y-92454012D01*
X129024307Y-92500242D01*
X128798653Y-92645447D01*
X128647270Y-92867003D01*
X128594012Y-93130000D01*
X128594012Y-94830000D01*
X128640242Y-95075693D01*
X128753444Y-95251613D01*
X128647270Y-95407003D01*
X128594012Y-95670000D01*
X128594012Y-97370000D01*
X128640242Y-97615693D01*
X128753444Y-97791613D01*
X128647270Y-97947003D01*
X128594012Y-98210000D01*
X128594012Y-99910000D01*
X128640242Y-100155693D01*
X128753444Y-100331613D01*
X128647270Y-100487003D01*
X128594012Y-100750000D01*
X128594012Y-102450000D01*
X128640242Y-102695693D01*
X128785447Y-102921347D01*
X128886193Y-102990184D01*
X128707936Y-103168441D01*
X128607000Y-103412121D01*
X128607000Y-104129250D01*
X128772750Y-104295000D01*
X129621000Y-104295000D01*
X129621000Y-104275000D01*
X129819000Y-104275000D01*
X129819000Y-104295000D01*
X130667250Y-104295000D01*
X130833000Y-104129250D01*
X130833000Y-103412121D01*
X130732064Y-103168441D01*
X130554233Y-102990610D01*
X130641347Y-102934553D01*
X130783108Y-102727080D01*
X130967003Y-102852730D01*
X131230000Y-102905988D01*
X131262000Y-102905988D01*
X131262000Y-105918000D01*
X131324267Y-106231035D01*
X131501587Y-106496413D01*
X132263587Y-107258414D01*
X132263590Y-107258416D01*
X135580000Y-110574827D01*
X135580000Y-116840000D01*
X135642267Y-117153035D01*
X135819587Y-117418413D01*
X137043174Y-118642000D01*
X123928000Y-118642000D01*
X123928000Y-83153860D01*
X123985080Y-83096780D01*
X123985080Y-81947960D01*
X124183080Y-81947960D01*
X124183080Y-83096780D01*
X124348830Y-83262530D01*
X124740469Y-83262530D01*
X124984149Y-83161594D01*
X125170654Y-82975089D01*
X125271590Y-82731409D01*
X125271590Y-82113710D01*
X125105840Y-81947960D01*
X124183080Y-81947960D01*
X123985080Y-81947960D01*
X123965080Y-81947960D01*
X123965080Y-81749960D01*
X123985080Y-81749960D01*
X123985080Y-80601140D01*
X124183080Y-80601140D01*
X124183080Y-81749960D01*
X125105840Y-81749960D01*
X125271590Y-81584210D01*
X125271590Y-80966511D01*
X125170654Y-80722831D01*
X124984149Y-80536326D01*
X124740469Y-80435390D01*
X124348830Y-80435390D01*
X124183080Y-80601140D01*
X123985080Y-80601140D01*
X123928000Y-80544060D01*
X123928000Y-74754080D01*
X123985080Y-74697000D01*
X123985080Y-73548180D01*
X124183080Y-73548180D01*
X124183080Y-74697000D01*
X124348830Y-74862750D01*
X124740469Y-74862750D01*
X124984149Y-74761814D01*
X125170654Y-74575309D01*
X125271590Y-74331629D01*
X125271590Y-73713930D01*
X125105840Y-73548180D01*
X124183080Y-73548180D01*
X123985080Y-73548180D01*
X123965080Y-73548180D01*
X123965080Y-73350180D01*
X123985080Y-73350180D01*
X123985080Y-72201360D01*
X124183080Y-72201360D01*
X124183080Y-73350180D01*
X125105840Y-73350180D01*
X125271590Y-73184430D01*
X125271590Y-72566731D01*
X125170654Y-72323051D01*
X124984149Y-72136546D01*
X124740469Y-72035610D01*
X124348830Y-72035610D01*
X124183080Y-72201360D01*
X123985080Y-72201360D01*
X123928000Y-72144280D01*
X123928000Y-70588000D01*
X171982000Y-70588000D01*
X171982000Y-118642000D01*
G36*
X150545400Y-90976708D02*
X150545400Y-91274583D01*
X150388653Y-91375447D01*
X150237270Y-91597003D01*
X150184012Y-91860000D01*
X150184012Y-93560000D01*
X150230242Y-93805693D01*
X150343444Y-93981613D01*
X150237270Y-94137003D01*
X150184012Y-94400000D01*
X150184012Y-96100000D01*
X150230242Y-96345693D01*
X150375447Y-96571347D01*
X150597003Y-96722730D01*
X150860000Y-96775988D01*
X151760000Y-96775988D01*
X152005693Y-96729758D01*
X152231347Y-96584553D01*
X152373108Y-96377080D01*
X152557003Y-96502730D01*
X152720739Y-96535887D01*
X152702169Y-96580608D01*
X152701833Y-96965702D01*
X152848891Y-97321611D01*
X153120956Y-97594152D01*
X153476608Y-97741831D01*
X153861702Y-97742167D01*
X154217611Y-97595109D01*
X154490152Y-97323044D01*
X154637831Y-96967392D01*
X154638167Y-96582298D01*
X154619556Y-96537255D01*
X154765693Y-96509758D01*
X154991347Y-96364553D01*
X155142730Y-96142997D01*
X155195988Y-95880000D01*
X155195988Y-94980000D01*
X155149758Y-94734307D01*
X155004553Y-94508653D01*
X154782997Y-94357270D01*
X154520000Y-94304012D01*
X152820000Y-94304012D01*
X152574307Y-94350242D01*
X152435988Y-94439248D01*
X152435988Y-94400000D01*
X152389758Y-94154307D01*
X152276556Y-93978387D01*
X152382730Y-93822997D01*
X152435988Y-93560000D01*
X152435988Y-93520044D01*
X152557003Y-93602730D01*
X152820000Y-93655988D01*
X154520000Y-93655988D01*
X154728625Y-93616733D01*
X156800956Y-95689064D01*
X157049010Y-95854808D01*
X157341610Y-95913010D01*
X159709536Y-95913010D01*
X159694312Y-95935795D01*
X159578106Y-96520000D01*
X159694312Y-97104205D01*
X160025237Y-97599469D01*
X160310387Y-97790000D01*
X160025237Y-97980531D01*
X159694312Y-98475795D01*
X159578106Y-99060000D01*
X159694312Y-99644205D01*
X160025237Y-100139469D01*
X160310387Y-100330000D01*
X160025237Y-100520531D01*
X159694312Y-101015795D01*
X159578106Y-101600000D01*
X159694312Y-102184205D01*
X160010821Y-102657894D01*
X159802653Y-102791847D01*
X159651270Y-103013403D01*
X159598012Y-103276400D01*
X159598012Y-105003600D01*
X159644242Y-105249293D01*
X159789447Y-105474947D01*
X160011003Y-105626330D01*
X160274000Y-105679588D01*
X160525400Y-105679588D01*
X160525400Y-108712000D01*
X160534949Y-108760006D01*
X160336298Y-108759833D01*
X159980389Y-108906891D01*
X159707848Y-109178956D01*
X159560169Y-109534608D01*
X159560099Y-109614593D01*
X157990600Y-111184092D01*
X157990600Y-108458000D01*
X157932398Y-108165400D01*
X157766654Y-107917346D01*
X156924099Y-107074791D01*
X156924167Y-106996298D01*
X156777109Y-106640389D01*
X156505044Y-106367848D01*
X156149392Y-106220169D01*
X155764298Y-106219833D01*
X155408389Y-106366891D01*
X155135848Y-106638956D01*
X154988169Y-106994608D01*
X154987833Y-107379702D01*
X155134891Y-107735611D01*
X155406956Y-108008152D01*
X155762608Y-108155831D01*
X155842593Y-108155901D01*
X156461400Y-108774708D01*
X156461400Y-109506495D01*
X156273469Y-109225237D01*
X155778205Y-108894312D01*
X155194000Y-108778106D01*
X154609795Y-108894312D01*
X154114531Y-109225237D01*
X153924000Y-109510387D01*
X153733469Y-109225237D01*
X153238205Y-108894312D01*
X152654000Y-108778106D01*
X152069795Y-108894312D01*
X151951422Y-108973407D01*
X151924654Y-108933346D01*
X151924651Y-108933344D01*
X151640600Y-108649292D01*
X151640600Y-104998499D01*
X151696152Y-104943044D01*
X151843831Y-104587392D01*
X151843998Y-104395988D01*
X152670000Y-104395988D01*
X152915693Y-104349758D01*
X153141347Y-104204553D01*
X153292730Y-103982997D01*
X153345988Y-103720000D01*
X153345988Y-102020000D01*
X153299758Y-101774307D01*
X153154553Y-101548653D01*
X152932997Y-101397270D01*
X152670000Y-101344012D01*
X151770000Y-101344012D01*
X151524307Y-101390242D01*
X151298653Y-101535447D01*
X151147270Y-101757003D01*
X151094012Y-102020000D01*
X151094012Y-102109683D01*
X151070965Y-102114267D01*
X150805586Y-102291587D01*
X150642712Y-102454462D01*
X150607250Y-102419000D01*
X149959000Y-102419000D01*
X149959000Y-102439000D01*
X149880792Y-102439000D01*
X149853733Y-102302965D01*
X149761000Y-102164180D01*
X149761000Y-101522750D01*
X149959000Y-101522750D01*
X149959000Y-102221000D01*
X150607250Y-102221000D01*
X150773000Y-102055250D01*
X150773000Y-101888121D01*
X150672064Y-101644441D01*
X150485559Y-101457936D01*
X150241879Y-101357000D01*
X150124750Y-101357000D01*
X149959000Y-101522750D01*
X149761000Y-101522750D01*
X149595250Y-101357000D01*
X149478121Y-101357000D01*
X149234441Y-101457936D01*
X149218000Y-101474377D01*
X149218000Y-100850988D01*
X149300000Y-100850988D01*
X149545693Y-100804758D01*
X149771347Y-100659553D01*
X149853363Y-100539519D01*
X149857936Y-100550559D01*
X150044441Y-100737064D01*
X150288121Y-100838000D01*
X151055250Y-100838000D01*
X151221000Y-100672250D01*
X151221000Y-99159000D01*
X151201000Y-99159000D01*
X151201000Y-98961000D01*
X151221000Y-98961000D01*
X151221000Y-97447750D01*
X151419000Y-97447750D01*
X151419000Y-98961000D01*
X151439000Y-98961000D01*
X151439000Y-99159000D01*
X151419000Y-99159000D01*
X151419000Y-100672250D01*
X151584750Y-100838000D01*
X152351879Y-100838000D01*
X152595559Y-100737064D01*
X152782064Y-100550559D01*
X152883000Y-100306879D01*
X152883000Y-99641780D01*
X153120956Y-99880152D01*
X153476608Y-100027831D01*
X153556593Y-100027901D01*
X154355400Y-100826708D01*
X154355400Y-101434583D01*
X154198653Y-101535447D01*
X154047270Y-101757003D01*
X153994012Y-102020000D01*
X153994012Y-103720000D01*
X154040242Y-103965693D01*
X154185447Y-104191347D01*
X154407003Y-104342730D01*
X154670000Y-104395988D01*
X155570000Y-104395988D01*
X155815693Y-104349758D01*
X156041347Y-104204553D01*
X156192730Y-103982997D01*
X156245988Y-103720000D01*
X156245988Y-102020000D01*
X156199758Y-101774307D01*
X156054553Y-101548653D01*
X155884600Y-101432529D01*
X155884600Y-100510000D01*
X155826398Y-100217400D01*
X155660654Y-99969346D01*
X154638099Y-98946791D01*
X154638167Y-98868298D01*
X154491109Y-98512389D01*
X154219044Y-98239848D01*
X153863392Y-98092169D01*
X153478298Y-98091833D01*
X153122389Y-98238891D01*
X152883000Y-98477862D01*
X152883000Y-97813121D01*
X152782064Y-97569441D01*
X152595559Y-97382936D01*
X152351879Y-97282000D01*
X151584750Y-97282000D01*
X151419000Y-97447750D01*
X151221000Y-97447750D01*
X151055250Y-97282000D01*
X150288121Y-97282000D01*
X150044441Y-97382936D01*
X149857936Y-97569441D01*
X149853336Y-97580545D01*
X149784553Y-97473653D01*
X149562997Y-97322270D01*
X149300000Y-97269012D01*
X149218000Y-97269012D01*
X149218000Y-96657490D01*
X149331347Y-96584553D01*
X149482730Y-96362997D01*
X149535988Y-96100000D01*
X149535988Y-94400000D01*
X149489758Y-94154307D01*
X149376556Y-93978387D01*
X149482730Y-93822997D01*
X149535988Y-93560000D01*
X149535988Y-91860000D01*
X149489758Y-91614307D01*
X149344553Y-91388653D01*
X149122997Y-91237270D01*
X148860000Y-91184012D01*
X147960000Y-91184012D01*
X147714307Y-91230242D01*
X147488653Y-91375447D01*
X147346892Y-91582920D01*
X147162997Y-91457270D01*
X146900000Y-91404012D01*
X145200000Y-91404012D01*
X144965048Y-91448221D01*
X143000799Y-89483972D01*
X143041611Y-89467109D01*
X143098219Y-89410600D01*
X148979292Y-89410600D01*
X150545400Y-90976708D01*
X150545400Y-90976708D01*
G37*
X150545400Y-90976708D02*
X150545400Y-91274583D01*
X150388653Y-91375447D01*
X150237270Y-91597003D01*
X150184012Y-91860000D01*
X150184012Y-93560000D01*
X150230242Y-93805693D01*
X150343444Y-93981613D01*
X150237270Y-94137003D01*
X150184012Y-94400000D01*
X150184012Y-96100000D01*
X150230242Y-96345693D01*
X150375447Y-96571347D01*
X150597003Y-96722730D01*
X150860000Y-96775988D01*
X151760000Y-96775988D01*
X152005693Y-96729758D01*
X152231347Y-96584553D01*
X152373108Y-96377080D01*
X152557003Y-96502730D01*
X152720739Y-96535887D01*
X152702169Y-96580608D01*
X152701833Y-96965702D01*
X152848891Y-97321611D01*
X153120956Y-97594152D01*
X153476608Y-97741831D01*
X153861702Y-97742167D01*
X154217611Y-97595109D01*
X154490152Y-97323044D01*
X154637831Y-96967392D01*
X154638167Y-96582298D01*
X154619556Y-96537255D01*
X154765693Y-96509758D01*
X154991347Y-96364553D01*
X155142730Y-96142997D01*
X155195988Y-95880000D01*
X155195988Y-94980000D01*
X155149758Y-94734307D01*
X155004553Y-94508653D01*
X154782997Y-94357270D01*
X154520000Y-94304012D01*
X152820000Y-94304012D01*
X152574307Y-94350242D01*
X152435988Y-94439248D01*
X152435988Y-94400000D01*
X152389758Y-94154307D01*
X152276556Y-93978387D01*
X152382730Y-93822997D01*
X152435988Y-93560000D01*
X152435988Y-93520044D01*
X152557003Y-93602730D01*
X152820000Y-93655988D01*
X154520000Y-93655988D01*
X154728625Y-93616733D01*
X156800956Y-95689064D01*
X157049010Y-95854808D01*
X157341610Y-95913010D01*
X159709536Y-95913010D01*
X159694312Y-95935795D01*
X159578106Y-96520000D01*
X159694312Y-97104205D01*
X160025237Y-97599469D01*
X160310387Y-97790000D01*
X160025237Y-97980531D01*
X159694312Y-98475795D01*
X159578106Y-99060000D01*
X159694312Y-99644205D01*
X160025237Y-100139469D01*
X160310387Y-100330000D01*
X160025237Y-100520531D01*
X159694312Y-101015795D01*
X159578106Y-101600000D01*
X159694312Y-102184205D01*
X160010821Y-102657894D01*
X159802653Y-102791847D01*
X159651270Y-103013403D01*
X159598012Y-103276400D01*
X159598012Y-105003600D01*
X159644242Y-105249293D01*
X159789447Y-105474947D01*
X160011003Y-105626330D01*
X160274000Y-105679588D01*
X160525400Y-105679588D01*
X160525400Y-108712000D01*
X160534949Y-108760006D01*
X160336298Y-108759833D01*
X159980389Y-108906891D01*
X159707848Y-109178956D01*
X159560169Y-109534608D01*
X159560099Y-109614593D01*
X157990600Y-111184092D01*
X157990600Y-108458000D01*
X157932398Y-108165400D01*
X157766654Y-107917346D01*
X156924099Y-107074791D01*
X156924167Y-106996298D01*
X156777109Y-106640389D01*
X156505044Y-106367848D01*
X156149392Y-106220169D01*
X155764298Y-106219833D01*
X155408389Y-106366891D01*
X155135848Y-106638956D01*
X154988169Y-106994608D01*
X154987833Y-107379702D01*
X155134891Y-107735611D01*
X155406956Y-108008152D01*
X155762608Y-108155831D01*
X155842593Y-108155901D01*
X156461400Y-108774708D01*
X156461400Y-109506495D01*
X156273469Y-109225237D01*
X155778205Y-108894312D01*
X155194000Y-108778106D01*
X154609795Y-108894312D01*
X154114531Y-109225237D01*
X153924000Y-109510387D01*
X153733469Y-109225237D01*
X153238205Y-108894312D01*
X152654000Y-108778106D01*
X152069795Y-108894312D01*
X151951422Y-108973407D01*
X151924654Y-108933346D01*
X151924651Y-108933344D01*
X151640600Y-108649292D01*
X151640600Y-104998499D01*
X151696152Y-104943044D01*
X151843831Y-104587392D01*
X151843998Y-104395988D01*
X152670000Y-104395988D01*
X152915693Y-104349758D01*
X153141347Y-104204553D01*
X153292730Y-103982997D01*
X153345988Y-103720000D01*
X153345988Y-102020000D01*
X153299758Y-101774307D01*
X153154553Y-101548653D01*
X152932997Y-101397270D01*
X152670000Y-101344012D01*
X151770000Y-101344012D01*
X151524307Y-101390242D01*
X151298653Y-101535447D01*
X151147270Y-101757003D01*
X151094012Y-102020000D01*
X151094012Y-102109683D01*
X151070965Y-102114267D01*
X150805586Y-102291587D01*
X150642712Y-102454462D01*
X150607250Y-102419000D01*
X149959000Y-102419000D01*
X149959000Y-102439000D01*
X149880792Y-102439000D01*
X149853733Y-102302965D01*
X149761000Y-102164180D01*
X149761000Y-101522750D01*
X149959000Y-101522750D01*
X149959000Y-102221000D01*
X150607250Y-102221000D01*
X150773000Y-102055250D01*
X150773000Y-101888121D01*
X150672064Y-101644441D01*
X150485559Y-101457936D01*
X150241879Y-101357000D01*
X150124750Y-101357000D01*
X149959000Y-101522750D01*
X149761000Y-101522750D01*
X149595250Y-101357000D01*
X149478121Y-101357000D01*
X149234441Y-101457936D01*
X149218000Y-101474377D01*
X149218000Y-100850988D01*
X149300000Y-100850988D01*
X149545693Y-100804758D01*
X149771347Y-100659553D01*
X149853363Y-100539519D01*
X149857936Y-100550559D01*
X150044441Y-100737064D01*
X150288121Y-100838000D01*
X151055250Y-100838000D01*
X151221000Y-100672250D01*
X151221000Y-99159000D01*
X151201000Y-99159000D01*
X151201000Y-98961000D01*
X151221000Y-98961000D01*
X151221000Y-97447750D01*
X151419000Y-97447750D01*
X151419000Y-98961000D01*
X151439000Y-98961000D01*
X151439000Y-99159000D01*
X151419000Y-99159000D01*
X151419000Y-100672250D01*
X151584750Y-100838000D01*
X152351879Y-100838000D01*
X152595559Y-100737064D01*
X152782064Y-100550559D01*
X152883000Y-100306879D01*
X152883000Y-99641780D01*
X153120956Y-99880152D01*
X153476608Y-100027831D01*
X153556593Y-100027901D01*
X154355400Y-100826708D01*
X154355400Y-101434583D01*
X154198653Y-101535447D01*
X154047270Y-101757003D01*
X153994012Y-102020000D01*
X153994012Y-103720000D01*
X154040242Y-103965693D01*
X154185447Y-104191347D01*
X154407003Y-104342730D01*
X154670000Y-104395988D01*
X155570000Y-104395988D01*
X155815693Y-104349758D01*
X156041347Y-104204553D01*
X156192730Y-103982997D01*
X156245988Y-103720000D01*
X156245988Y-102020000D01*
X156199758Y-101774307D01*
X156054553Y-101548653D01*
X155884600Y-101432529D01*
X155884600Y-100510000D01*
X155826398Y-100217400D01*
X155660654Y-99969346D01*
X154638099Y-98946791D01*
X154638167Y-98868298D01*
X154491109Y-98512389D01*
X154219044Y-98239848D01*
X153863392Y-98092169D01*
X153478298Y-98091833D01*
X153122389Y-98238891D01*
X152883000Y-98477862D01*
X152883000Y-97813121D01*
X152782064Y-97569441D01*
X152595559Y-97382936D01*
X152351879Y-97282000D01*
X151584750Y-97282000D01*
X151419000Y-97447750D01*
X151221000Y-97447750D01*
X151055250Y-97282000D01*
X150288121Y-97282000D01*
X150044441Y-97382936D01*
X149857936Y-97569441D01*
X149853336Y-97580545D01*
X149784553Y-97473653D01*
X149562997Y-97322270D01*
X149300000Y-97269012D01*
X149218000Y-97269012D01*
X149218000Y-96657490D01*
X149331347Y-96584553D01*
X149482730Y-96362997D01*
X149535988Y-96100000D01*
X149535988Y-94400000D01*
X149489758Y-94154307D01*
X149376556Y-93978387D01*
X149482730Y-93822997D01*
X149535988Y-93560000D01*
X149535988Y-91860000D01*
X149489758Y-91614307D01*
X149344553Y-91388653D01*
X149122997Y-91237270D01*
X148860000Y-91184012D01*
X147960000Y-91184012D01*
X147714307Y-91230242D01*
X147488653Y-91375447D01*
X147346892Y-91582920D01*
X147162997Y-91457270D01*
X146900000Y-91404012D01*
X145200000Y-91404012D01*
X144965048Y-91448221D01*
X143000799Y-89483972D01*
X143041611Y-89467109D01*
X143098219Y-89410600D01*
X148979292Y-89410600D01*
X150545400Y-90976708D01*
G36*
X139430412Y-75824000D02*
X139430412Y-77856000D01*
X139476642Y-78101693D01*
X139621847Y-78327347D01*
X139843403Y-78478730D01*
X140106400Y-78531988D01*
X141833600Y-78531988D01*
X142079293Y-78485758D01*
X142304947Y-78340553D01*
X142454921Y-78121060D01*
X142925795Y-78435688D01*
X143510000Y-78551894D01*
X144094205Y-78435688D01*
X144589469Y-78104763D01*
X144780000Y-77819613D01*
X144970531Y-78104763D01*
X145465795Y-78435688D01*
X146050000Y-78551894D01*
X146634205Y-78435688D01*
X147129469Y-78104763D01*
X147320000Y-77819613D01*
X147510531Y-78104763D01*
X148005795Y-78435688D01*
X148590000Y-78551894D01*
X149174205Y-78435688D01*
X149669469Y-78104763D01*
X149860000Y-77819613D01*
X150050531Y-78104763D01*
X150545795Y-78435688D01*
X150982933Y-78522640D01*
X142447575Y-87057999D01*
X142124399Y-87057999D01*
X141811364Y-87120266D01*
X141545986Y-87297586D01*
X141145586Y-87697986D01*
X140968266Y-87963364D01*
X140905999Y-88276399D01*
X140905999Y-89363999D01*
X140965764Y-89664456D01*
X136103420Y-84802112D01*
X136103420Y-82113710D01*
X136348410Y-82113710D01*
X136348410Y-82731409D01*
X136449346Y-82975089D01*
X136635851Y-83161594D01*
X136879531Y-83262530D01*
X137271170Y-83262530D01*
X137436920Y-83096780D01*
X137436920Y-81947960D01*
X137634920Y-81947960D01*
X137634920Y-83096780D01*
X137800670Y-83262530D01*
X138192309Y-83262530D01*
X138435989Y-83161594D01*
X138622494Y-82975089D01*
X138723430Y-82731409D01*
X138723430Y-82113710D01*
X138557680Y-81947960D01*
X137634920Y-81947960D01*
X137436920Y-81947960D01*
X136514160Y-81947960D01*
X136348410Y-82113710D01*
X136103420Y-82113710D01*
X136103420Y-80966511D01*
X136348410Y-80966511D01*
X136348410Y-81584210D01*
X136514160Y-81749960D01*
X137436920Y-81749960D01*
X137436920Y-80601140D01*
X137634920Y-80601140D01*
X137634920Y-81749960D01*
X138557680Y-81749960D01*
X138723430Y-81584210D01*
X138723430Y-80966511D01*
X138622494Y-80722831D01*
X138435989Y-80536326D01*
X138192309Y-80435390D01*
X137800670Y-80435390D01*
X137634920Y-80601140D01*
X137436920Y-80601140D01*
X137271170Y-80435390D01*
X136879531Y-80435390D01*
X136635851Y-80536326D01*
X136449346Y-80722831D01*
X136348410Y-80966511D01*
X136103420Y-80966511D01*
X136103420Y-80332344D01*
X136109887Y-80328183D01*
X136261270Y-80106627D01*
X136314528Y-79843630D01*
X136314528Y-78794610D01*
X136268298Y-78548917D01*
X136123093Y-78323263D01*
X135901537Y-78171880D01*
X135638540Y-78118622D01*
X135039100Y-78118622D01*
X134793407Y-78164852D01*
X134787089Y-78168918D01*
X134538720Y-78118622D01*
X133939280Y-78118622D01*
X133693587Y-78164852D01*
X133676922Y-78175576D01*
X133570779Y-78131610D01*
X133403930Y-78131610D01*
X133238180Y-78297360D01*
X133238180Y-79220120D01*
X133258180Y-79220120D01*
X133258180Y-79418120D01*
X133238180Y-79418120D01*
X133238180Y-80340880D01*
X133403930Y-80506630D01*
X133474400Y-80506630D01*
X133474400Y-80880862D01*
X130104000Y-84251262D01*
X130104000Y-82634826D01*
X131517954Y-81220873D01*
X131695273Y-80955495D01*
X131757540Y-80642460D01*
X131757540Y-80519618D01*
X132339080Y-80519618D01*
X132584773Y-80473388D01*
X132601438Y-80462664D01*
X132707581Y-80506630D01*
X132874430Y-80506630D01*
X133040180Y-80340880D01*
X133040180Y-79418120D01*
X133020180Y-79418120D01*
X133020180Y-79220120D01*
X133040180Y-79220120D01*
X133040180Y-78297360D01*
X132874430Y-78131610D01*
X132803960Y-78131610D01*
X132803960Y-77319348D01*
X133666708Y-76456600D01*
X138430000Y-76456600D01*
X138722600Y-76398398D01*
X138970654Y-76232654D01*
X139443389Y-75759919D01*
X139430412Y-75824000D01*
X139430412Y-75824000D01*
G37*
X139430412Y-75824000D02*
X139430412Y-77856000D01*
X139476642Y-78101693D01*
X139621847Y-78327347D01*
X139843403Y-78478730D01*
X140106400Y-78531988D01*
X141833600Y-78531988D01*
X142079293Y-78485758D01*
X142304947Y-78340553D01*
X142454921Y-78121060D01*
X142925795Y-78435688D01*
X143510000Y-78551894D01*
X144094205Y-78435688D01*
X144589469Y-78104763D01*
X144780000Y-77819613D01*
X144970531Y-78104763D01*
X145465795Y-78435688D01*
X146050000Y-78551894D01*
X146634205Y-78435688D01*
X147129469Y-78104763D01*
X147320000Y-77819613D01*
X147510531Y-78104763D01*
X148005795Y-78435688D01*
X148590000Y-78551894D01*
X149174205Y-78435688D01*
X149669469Y-78104763D01*
X149860000Y-77819613D01*
X150050531Y-78104763D01*
X150545795Y-78435688D01*
X150982933Y-78522640D01*
X142447575Y-87057999D01*
X142124399Y-87057999D01*
X141811364Y-87120266D01*
X141545986Y-87297586D01*
X141145586Y-87697986D01*
X140968266Y-87963364D01*
X140905999Y-88276399D01*
X140905999Y-89363999D01*
X140965764Y-89664456D01*
X136103420Y-84802112D01*
X136103420Y-82113710D01*
X136348410Y-82113710D01*
X136348410Y-82731409D01*
X136449346Y-82975089D01*
X136635851Y-83161594D01*
X136879531Y-83262530D01*
X137271170Y-83262530D01*
X137436920Y-83096780D01*
X137436920Y-81947960D01*
X137634920Y-81947960D01*
X137634920Y-83096780D01*
X137800670Y-83262530D01*
X138192309Y-83262530D01*
X138435989Y-83161594D01*
X138622494Y-82975089D01*
X138723430Y-82731409D01*
X138723430Y-82113710D01*
X138557680Y-81947960D01*
X137634920Y-81947960D01*
X137436920Y-81947960D01*
X136514160Y-81947960D01*
X136348410Y-82113710D01*
X136103420Y-82113710D01*
X136103420Y-80966511D01*
X136348410Y-80966511D01*
X136348410Y-81584210D01*
X136514160Y-81749960D01*
X137436920Y-81749960D01*
X137436920Y-80601140D01*
X137634920Y-80601140D01*
X137634920Y-81749960D01*
X138557680Y-81749960D01*
X138723430Y-81584210D01*
X138723430Y-80966511D01*
X138622494Y-80722831D01*
X138435989Y-80536326D01*
X138192309Y-80435390D01*
X137800670Y-80435390D01*
X137634920Y-80601140D01*
X137436920Y-80601140D01*
X137271170Y-80435390D01*
X136879531Y-80435390D01*
X136635851Y-80536326D01*
X136449346Y-80722831D01*
X136348410Y-80966511D01*
X136103420Y-80966511D01*
X136103420Y-80332344D01*
X136109887Y-80328183D01*
X136261270Y-80106627D01*
X136314528Y-79843630D01*
X136314528Y-78794610D01*
X136268298Y-78548917D01*
X136123093Y-78323263D01*
X135901537Y-78171880D01*
X135638540Y-78118622D01*
X135039100Y-78118622D01*
X134793407Y-78164852D01*
X134787089Y-78168918D01*
X134538720Y-78118622D01*
X133939280Y-78118622D01*
X133693587Y-78164852D01*
X133676922Y-78175576D01*
X133570779Y-78131610D01*
X133403930Y-78131610D01*
X133238180Y-78297360D01*
X133238180Y-79220120D01*
X133258180Y-79220120D01*
X133258180Y-79418120D01*
X133238180Y-79418120D01*
X133238180Y-80340880D01*
X133403930Y-80506630D01*
X133474400Y-80506630D01*
X133474400Y-80880862D01*
X130104000Y-84251262D01*
X130104000Y-82634826D01*
X131517954Y-81220873D01*
X131695273Y-80955495D01*
X131757540Y-80642460D01*
X131757540Y-80519618D01*
X132339080Y-80519618D01*
X132584773Y-80473388D01*
X132601438Y-80462664D01*
X132707581Y-80506630D01*
X132874430Y-80506630D01*
X133040180Y-80340880D01*
X133040180Y-79418120D01*
X133020180Y-79418120D01*
X133020180Y-79220120D01*
X133040180Y-79220120D01*
X133040180Y-78297360D01*
X132874430Y-78131610D01*
X132803960Y-78131610D01*
X132803960Y-77319348D01*
X133666708Y-76456600D01*
X138430000Y-76456600D01*
X138722600Y-76398398D01*
X138970654Y-76232654D01*
X139443389Y-75759919D01*
X139430412Y-75824000D01*
M02*
