G04 #@! TF.FileFunction,Paste,Bot*
%FSLAX46Y46*%
G04 Gerber Fmt 4.6, Leading zero omitted, Abs format (unit mm)*
G04 Created by KiCad (PCBNEW 4.0.1-stable) date Sun 03 Jan 2016 01:50:34 PM EET*
%MOMM*%
G01*
G04 APERTURE LIST*
%ADD10C,0.100000*%
%ADD11R,0.599440X1.049020*%
%ADD12R,1.049020X1.501140*%
%ADD13R,1.800000X2.230000*%
%ADD14R,0.600000X0.500000*%
%ADD15R,0.500000X0.600000*%
%ADD16R,1.700000X0.900000*%
%ADD17R,0.900000X1.700000*%
%ADD18R,2.032000X3.657600*%
%ADD19R,2.032000X1.016000*%
G04 APERTURE END LIST*
D10*
D11*
X127640080Y-79319120D03*
X128739900Y-79319120D03*
X129839720Y-79319120D03*
X130939540Y-79319120D03*
X132039360Y-79319120D03*
X133139180Y-79319120D03*
X134239000Y-79319120D03*
X135338820Y-79319120D03*
D12*
X124084080Y-81848960D03*
X137535920Y-81848960D03*
X124084080Y-73449180D03*
X137535920Y-73449180D03*
D13*
X151320000Y-99060000D03*
X148400000Y-99060000D03*
D14*
X153374000Y-88646000D03*
X154474000Y-88646000D03*
D15*
X149860000Y-103420000D03*
X149860000Y-102320000D03*
D16*
X153670000Y-95430000D03*
X153670000Y-92530000D03*
D17*
X126820000Y-106934000D03*
X129720000Y-106934000D03*
X129720000Y-104394000D03*
X126820000Y-104394000D03*
X148410000Y-95250000D03*
X151310000Y-95250000D03*
X152220000Y-102870000D03*
X155120000Y-102870000D03*
D16*
X132080000Y-101780000D03*
X132080000Y-98880000D03*
D17*
X148410000Y-92710000D03*
X151310000Y-92710000D03*
D16*
X162560000Y-114734000D03*
X162560000Y-111834000D03*
X146050000Y-92530000D03*
X146050000Y-95430000D03*
D17*
X129720000Y-93980000D03*
X126820000Y-93980000D03*
X129720000Y-96520000D03*
X126820000Y-96520000D03*
X129720000Y-99060000D03*
X126820000Y-99060000D03*
X129720000Y-101600000D03*
X126820000Y-101600000D03*
D18*
X161798000Y-82550000D03*
D19*
X168402000Y-82550000D03*
X168402000Y-84836000D03*
X168402000Y-80264000D03*
M02*
